<?xml version="1.0" encoding="utf-8"?>
<!-- Generator: Adobe Illustrator 12.0.0, SVG Export Plug-In . SVG Version: 6.00 Build 51448)  -->
<!DOCTYPE svg PUBLIC "-//W3C//DTD SVG 1.1//EN" "http://www.w3.org/Graphics/SVG/1.1/DTD/svg11.dtd" >
<svg  version="1.1" id="Layer_1" xmlns="http://www.w3.org/2000/svg" xmlns:xlink="http://www.w3.org/1999/xlink" width="671.967" height="335.982"
	 viewBox="0 0 671.967 335.982" overflow="visible" enable-background="new 0 0 671.967 335.982" xml:space="preserve">
<rect x="0" y="0" fill="#FFFFFF" width="671.967" height="335.982"/>
<radialGradient id="XMLID_4_" cx="370.4949" cy="193.094" r="301.5621" gradientTransform="matrix(0.8949 0 0 -0.9545 -7.7401 320.9333)" gradientUnits="userSpaceOnUse">
	<stop  offset="0.0056" style="stop-color:#FBF6B3"/>
	<stop  offset="1" style="stop-color:#FFFFFF"/>
</radialGradient>
<path fill="url(#XMLID_4_)" d="M659.39,331.982h-647c0,0,0-160.475,0-160.586c0,0,27.75,0,29.218,0c11.309,0,22.618,0,33.927,0
	c11.053,0,21.209,1.547,30.266-6.625c4.694-4.235,6.718-8.71,8.676-14.485c1.182-3.487,5.744-19.647,11.792-15.223
	c4.564,3.341,5.098,15.381,5.133,20.208c0.04,5.485-0.787,11.565,2.843,16.112c5.334,6.681,15.989,4.476,23.133,2.136
	c10.409-3.409,16.738-11.435,15.037-22.623c-1.203-7.911-2.276-21.379,10.489-17.397c11.634,3.627,9.012,23.868,18.855,30.695
	c11.023,7.646,25.589,6.699,38.234,5.141c11.187-1.378,21.491,2.063,32.701,2.063c29.096,0,58.191,0,87.286,0
	c54.709,0,109.418,0,164.127,0c37.349,0,74.697,0,112.046,0c1.16,0,23.238,0,23.238,0C659.39,171.421,659.39,331.982,659.39,331.982
	z"/>
<radialGradient id="XMLID_5_" cx="339.0388" cy="59.8528" r="287.9543" gradientTransform="matrix(1 0 0 -0.599 -0.0552 256.3348)" gradientUnits="userSpaceOnUse">
	<stop  offset="0.0056" style="stop-color:#B9D7E6"/>
	<stop  offset="0.2353" style="stop-color:#BDD9E8"/>
	<stop  offset="0.4791" style="stop-color:#CAE1EC"/>
	<stop  offset="0.7295" style="stop-color:#DFEDF4"/>
	<stop  offset="0.9831" style="stop-color:#FDFEFE"/>
	<stop  offset="1" style="stop-color:#FFFFFF"/>
</radialGradient>
<path fill="url(#XMLID_5_)" d="M648.39,170.396c0,0,12.419,0-0.871,0c-30.585,0-18.252-0.658-48.829-0.001
	c-4.653,0.101-9.248-0.151-13.382,2.051c-5.071,2.703-9.172,7.521-14.34,10.357c-10.117,5.556-21.525,7.697-32.909,5.444
	c-7.028-1.392-14.319-5.417-20.186-9.318c-4.451-2.961-8.928-8.119-14.312-9.329c-4.735-1.063-10.43,0.796-15.446,0.796
	c-15.414,0-30.827,0-46.24,0c-11.284,0-24.811-2.083-35.87-0.002c-9.544,1.796-6.227,11.038-3.074,17.221
	c3.956,7.762,10.728,12.31,6.738,21.744c-5.915,13.995-26.771,17.381-36.944,6.237c-9.864-10.805-2.505-22.013,5.85-30.681
	c2.624-2.723,10.812-7.531,8.995-11.885c-2.504-6.005-16.219-2.636-20.78-2.635c-9.68,0.002-19.359,0-29.04,0
	c-8.747,0-21.3-2.359-29.667-0.002c-7.433,2.094-4.368,8.774-2.857,14.64c2.066,8.026,4.381,16.604,1.498,24.744
	c-3.352,9.459-13.108,18.791-23.854,15.783c-14.626-4.094-18.167-16.813-13.977-29.632c2.14-6.545,11.437-19.545,2.746-24.577
	c-5.583-3.231-16.6-0.955-22.768-0.955c-9.059,0-18.117,0-27.176,0c-11.359,0-22.01-2.491-28.317-12.974
	c-3.343-5.556-2.87-17.269-8.977-20.561c-9.15-4.933-11.43,7.908-10.986,13.646c0.563,7.252,2.164,16.143-2.135,22.399
	c-4.876,7.096-14.827,8.386-22.923,8.997c-7.063,0.534-11.965-3.583-15.468-9.397c-4.179-6.938-2.439-16.279-3.625-24.223
	c-0.515-3.445-2.5-19.37-8.012-10.39c-1.515,2.469-1.122,4.626-1.366,7.363c-0.301,3.359-1.24,6.483-2.486,9.625
	c-1.292,3.257-2.872,6.499-4.946,9.335c-6.738,9.214-17.362,6.177-27.525,6.177c-11.703,0-23.406,0-35.11,0
	c-14.144,0-28.286,0-42.43,0v-124h641v124H648.39z"/>
<g>
	<path fill="#FFBF00" stroke="#000000" stroke-width="2" d="M67.413,171.24h25.338l3.571,0.107
		c6.561,0.292,15.547,0.691,19.663-8.692c0.627-1.431,1.505-2.784,2.434-4.219c1.755-2.709,3.745-5.78,4.413-9.994l0.302-3.254
		c0.087-1.284,0.26-3.861,0.635-5.487c0.055,0.037,0.095,0.06,0.153,0.103c1.923,1.391,2.659,4.034,2.659,7.091
		c0,2.858-0.644,6.08-1.566,8.98c-0.916,2.877-1.368,5.69-1.368,8.386c0,5.452,1.853,10.421,5.477,14.459
		c6.277,6.993,17.296,10.099,28.074,7.913c7.211-1.462,21.852-9.075,23.014-20.043c0.532-5.025-0.999-9.63-2.351-13.692
		c-1.148-3.451-2.232-6.711-1.964-9.765c0.152-1.747,0.835-3.236,1.87-4.086c0.848-0.696,1.948-0.977,3.271-0.832
		c1.217,0.132,1.815,0.474,2.123,6.733c0.13,2.651,0.265,5.393,1.169,7.813c3.501,9.374,11.704,15.543,24.378,18.339
		c3.611,0.796,7.658,0.547,11.229,0.327l4.366-0.188h13.329c5.748,0,11.691,0,17.424,0.268c1.716,0.08,3.527-0.079,5.279-0.232
		c2.817-0.247,6.011-0.525,7.495,0.408c2.846,1.789,3.668,4.81,2.447,8.979c-0.634,2.166-1.91,4.17-3.26,6.293
		c-1.637,2.571-3.49,5.487-4.47,9.139c-2.392,8.917,0.361,17.017,7.963,23.422c8.049,6.783,15.716,10.131,26.969,4.424
		c6.839-3.468,14.905-11.214,15.13-21.631c0.092-4.249-2.3-9.011-5.07-14.526c-2.378-4.734-5.972-11.892-4.757-14.604
		c0.414-0.923,1.838-1.479,2.96-1.78c3.65-0.983,8.438-0.696,13.067-0.417l6.419,0.262c7.612,0,15.287-0.143,22.708-0.28
		c9.578-0.179,19.48-0.363,29.267-0.238l0.669,0.007c1.289,0.012,3.447,0.031,3.93,0.391c0.004,0.009,0.064,0.109,0.131,0.317
		c0.8,2.521-4.727,6.604-8.382,9.305c-2.719,2.009-5.285,3.905-6.968,5.978c-5.021,6.186-6.575,13.621-4.376,20.936
		c2.471,8.216,9.477,15.042,18.284,17.815c10.968,3.453,27.389-5.264,32.114-14.539c2.623-5.151,3.45-10.554,2.393-15.625
		c-1.084-5.194-4.477-8.899-7.47-12.169c-2.607-2.848-4.859-5.307-5.378-8.222c-0.37-2.076-0.131-3.217,0.216-3.591
		c1.387-1.495,7.523-0.876,10.82-0.543l1.208,0.121c6.447,0.626,12.907,0.521,19.155,0.417l7.063-0.078
		c6.646,0,13.369-0.17,19.871-0.335l15.255-0.309c2.061-0.021,4.104,0.271,6.27,0.58c1.866,0.267,3.797,0.542,5.834,0.628
		c2.311,0.097,4.525-0.333,6.48-0.713c2.42-0.47,4.512-0.876,6.052-0.234c0.977,0.407,2.412,2.07,3.566,3.407
		c1.253,1.45,2.548,2.95,4.11,4.115c9.455,7.047,23.865,11.556,36.714,11.486c10.982-0.059,20.813-3.572,30.05-10.742l0.545-0.425
		c5.582-4.337,8.951-6.955,15.128-7.518c3.41-0.311,6.909-0.022,10.612,0.279c2.696,0.221,5.484,0.449,8.323,0.441
		c0.001,0,49.763-0.324,49.763-0.324c5.794-0.05,6.405-9.207-2.705-9.195c-8.123,0.01-47.08,0.52-47.08,0.52
		c-2.459,0.007-4.939-0.196-7.567-0.412c-3.921-0.32-7.977-0.651-12.161-0.271c-8.802,0.801-13.914,4.774-19.833,9.374l-0.542,0.421
		c-7.719,5.991-15.528,8.803-24.58,8.853c-10.85,0.059-23.422-3.842-31.286-9.703c-0.773-0.576-1.741-1.698-2.68-2.782
		c-1.863-2.159-3.978-4.605-6.912-5.83c-4.052-1.689-8.033-0.916-11.232-0.294c-1.611,0.313-3.133,0.608-4.388,0.556
		c-1.588-0.065-3.215-0.299-4.938-0.545c-2.403-0.343-4.889-0.698-7.633-0.671c-0.001,0-15.392,0.313-15.392,0.313
		c-6.447,0.163-13.113,0.333-19.645,0.333l-7.212,0.078c-6.273,0.104-12.198,0.202-18.136-0.375l-1.176-0.116
		c-6.188-0.625-13.892-1.403-18.323,3.378c-2.497,2.693-3.331,6.491-2.479,11.288c0.979,5.486,4.496,9.331,7.602,12.721
		c2.531,2.765,4.719,5.153,5.298,7.93c0.802,3.844-0.432,7.397-1.603,9.702c-3.097,6.079-15.492,11.896-21.392,10.039
		c-6.005-1.891-10.744-6.42-12.368-11.821c-0.93-3.093-1.208-7.802,2.745-12.673c0.961-1.185,3.181-2.825,5.327-4.41
		c6.06-4.477,14.358-10.608,11.612-19.265c-2.186-6.893-8.678-6.951-12.557-6.986l-0.636-0.006c-9.928-0.127-19.9,0.062-29.55,0.238
		c-7.379,0.137-15.011,0.279-22.54,0.279l-5.879-0.245c-5.102-0.308-10.883-0.655-15.949,0.71c-4.37,1.178-7.341,3.463-8.832,6.792
		c-2.962,6.612,1.048,14.6,4.928,22.322c1.854,3.688,4.158,8.279,4.114,10.292c-0.129,5.992-5.379,11.354-10.203,13.8
		c-6.396,3.243-10.231,2.508-17.099-3.279c-4.942-4.165-6.554-8.679-5.07-14.208c0.622-2.318,1.958-4.418,3.371-6.642
		c1.552-2.439,3.31-5.204,4.302-8.594c2.35-8.021-0.004-15.17-6.292-19.126c-4.047-2.545-9.051-2.106-13.072-1.755
		c-1.522,0.133-2.963,0.259-4.076,0.208c-5.941-0.276-11.991-0.276-17.843-0.276h-13.33l-4.92,0.205
		c-3.126,0.193-6.357,0.393-8.735-0.133c-9.771-2.154-15.455-6.189-17.888-12.7c-0.415-1.108-0.514-3.14-0.609-5.104
		c-0.244-4.968-0.698-14.214-10.14-15.24c-3.765-0.41-7.208,0.566-9.957,2.823c-2.936,2.411-4.756,6.053-5.125,10.255
		c-0.431,4.912,1.068,9.417,2.391,13.392c1.166,3.507,2.268,6.817,1.939,9.904c-0.489,4.628-9.491,10.881-15.853,12.171
		c-7.712,1.564-15.399-0.438-19.587-5.104c-3.245-3.615-4.017-8.492-2.23-14.105c1.782-5.6,4.919-19.352-4.392-26.091
		c-3.422-2.477-6.58-3.066-9.383-1.75c-4.89,2.294-5.335,8.959-5.661,13.826l-0.211,2.446c-0.369,2.328-1.624,4.266-3.077,6.508
		c-1.032,1.594-2.203,3.398-3.123,5.498c-1.496,3.412-4.21,3.619-11.021,3.315l-3.975-0.115H67.413"/>
</g>
<line fill="none" stroke="#000000" stroke-width="1.7122" x1="232.39" y1="45.734" x2="232.39" y2="331.396"/>
<line fill="none" stroke="#000000" stroke-width="1.6178" x1="449.39" y1="44.396" x2="449.39" y2="331.982"/>
<g enable-background="new    ">
	<path d="M21.329,16.551h-4.216v2.72h4.709v2.125h-7.293V9.938h7.055v2.125h-4.471v2.38h4.216V16.551z"/>
</g>
<g enable-background="new    ">
	<path d="M23.539,15.735c0-1.037-0.034-1.904-0.068-2.652h2.244l0.119,1.156h0.051c0.34-0.544,1.173-1.343,2.567-1.343
		c1.7,0,2.975,1.139,2.975,3.587v4.913h-2.584v-4.607c0-1.07-0.374-1.802-1.309-1.802c-0.714,0-1.139,0.493-1.326,0.969
		c-0.068,0.17-0.085,0.408-0.085,0.646v4.794h-2.584V15.735z"/>
	<path d="M41.559,9.325v9.588c0,0.952,0.034,1.922,0.068,2.482h-2.295l-0.102-1.207h-0.051c-0.51,0.918-1.53,1.394-2.601,1.394
		c-1.972,0-3.553-1.683-3.553-4.267c-0.017-2.788,1.734-4.42,3.723-4.42c1.037,0,1.819,0.374,2.193,0.935h0.034V9.325H41.559z
		 M38.975,16.618c0-0.152,0-0.322-0.034-0.476c-0.153-0.697-0.714-1.258-1.513-1.258c-1.19,0-1.785,1.054-1.785,2.362
		c0,1.395,0.697,2.278,1.768,2.278c0.748,0,1.36-0.51,1.513-1.241c0.034-0.17,0.051-0.374,0.051-0.578V16.618z"/>
</g>
<g enable-background="new    ">
	<path d="M47.458,21.582c-2.431,0-4.301-1.598-4.301-4.283c0-2.687,1.768-4.403,4.454-4.403c2.533,0,4.233,1.751,4.233,4.267
		c0,3.026-2.159,4.42-4.369,4.42H47.458z M47.509,19.73c1.02,0,1.649-1.003,1.649-2.499c0-1.224-0.476-2.482-1.649-2.482
		c-1.224,0-1.7,1.259-1.7,2.499c0,1.411,0.595,2.482,1.683,2.482H47.509z"/>
</g>
<g enable-background="new    ">
	<path d="M59.731,21.192c-0.459,0.221-1.326,0.391-2.312,0.391c-2.686,0-4.403-1.648-4.403-4.267c0-2.431,1.666-4.42,4.76-4.42
		c0.68,0,1.428,0.119,1.972,0.323L59.34,15.14c-0.306-0.136-0.765-0.255-1.445-0.255c-1.36,0-2.244,0.969-2.227,2.329
		c0,1.529,1.02,2.346,2.278,2.346c0.612,0,1.088-0.103,1.479-0.272L59.731,21.192z"/>
</g>
<g enable-background="new    ">
	<path d="M63.352,13.082l1.241,4.08c0.136,0.493,0.306,1.105,0.408,1.548h0.051c0.119-0.442,0.255-1.071,0.374-1.548l1.02-4.08
		h2.771l-1.938,5.475c-1.19,3.298-1.989,4.606-2.924,5.439c-0.884,0.782-1.836,1.071-2.499,1.14l-0.544-2.176
		c0.323-0.068,0.731-0.222,1.122-0.442c0.391-0.204,0.833-0.629,1.071-1.037c0.085-0.136,0.136-0.255,0.136-0.374
		c0-0.085-0.017-0.221-0.102-0.425l-3.06-7.6H63.352z"/>
</g>
<g enable-background="new    ">
	<path d="M73.195,10.822v2.261h1.853v1.904h-1.853v3.026c0,1.003,0.255,1.462,1.02,1.462c0.357,0,0.527-0.018,0.765-0.068
		l0.017,1.955c-0.323,0.119-0.952,0.221-1.666,0.221c-0.833,0-1.53-0.288-1.955-0.714c-0.476-0.492-0.714-1.292-0.714-2.465v-3.417
		h-1.105v-1.904h1.105v-1.563L73.195,10.822z"/>
</g>
<g enable-background="new    ">
	<path d="M80.283,21.582c-2.431,0-4.301-1.598-4.301-4.283c0-2.687,1.768-4.403,4.454-4.403c2.533,0,4.233,1.751,4.233,4.267
		c0,3.026-2.159,4.42-4.369,4.42H80.283z M80.335,19.73c1.02,0,1.649-1.003,1.649-2.499c0-1.224-0.476-2.482-1.649-2.482
		c-1.224,0-1.7,1.259-1.7,2.499c0,1.411,0.595,2.482,1.683,2.482H80.335z"/>
	<path d="M86.251,19.152c0.476,0.289,1.462,0.612,2.227,0.612c0.782,0,1.105-0.255,1.105-0.681c0-0.441-0.255-0.646-1.207-0.969
		c-1.734-0.561-2.397-1.513-2.38-2.481c0-1.564,1.326-2.737,3.383-2.737c0.969,0,1.819,0.238,2.329,0.493l-0.442,1.768
		c-0.374-0.187-1.105-0.459-1.802-0.459c-0.629,0-0.986,0.255-0.986,0.663s0.323,0.612,1.343,0.969
		c1.581,0.527,2.227,1.344,2.244,2.551c0,1.563-1.207,2.702-3.587,2.702c-1.088,0-2.057-0.255-2.686-0.595L86.251,19.152z"/>
	<path d="M94.92,11.994c-0.867,0-1.428-0.611-1.428-1.377c0-0.782,0.578-1.377,1.462-1.377c0.884,0,1.428,0.595,1.445,1.377
		c0,0.766-0.561,1.377-1.462,1.377H94.92z M93.645,21.396v-8.313h2.584v8.313H93.645z"/>
	<path d="M98.286,19.152c0.476,0.289,1.462,0.612,2.227,0.612c0.782,0,1.105-0.255,1.105-0.681c0-0.441-0.255-0.646-1.207-0.969
		c-1.734-0.561-2.397-1.513-2.38-2.481c0-1.564,1.326-2.737,3.383-2.737c0.969,0,1.819,0.238,2.329,0.493l-0.442,1.768
		c-0.374-0.187-1.105-0.459-1.802-0.459c-0.629,0-0.986,0.255-0.986,0.663s0.323,0.612,1.343,0.969
		c1.581,0.527,2.227,1.344,2.244,2.551c0,1.563-1.207,2.702-3.587,2.702c-1.088,0-2.057-0.255-2.686-0.595L98.286,19.152z"/>
</g>
<g enable-background="new    ">
	<path d="M14.53,39.421c0.63-0.12,1.455-0.211,2.505-0.211c1.29,0,2.235,0.301,2.835,0.841c0.555,0.479,0.9,1.215,0.9,2.114
		c0,0.915-0.27,1.636-0.795,2.16c-0.69,0.735-1.815,1.11-3.09,1.11c-0.39,0-0.75-0.015-1.05-0.09v4.05H14.53V39.421z M15.835,44.281
		c0.285,0.075,0.66,0.105,1.08,0.105c1.59,0,2.535-0.78,2.535-2.146c0-1.35-0.945-1.995-2.385-1.995c-0.57,0-1.005,0.061-1.23,0.105
		V44.281z"/>
</g>
<g enable-background="new    ">
	<path d="M22.39,38.745h1.32v4.53h0.03c0.21-0.375,0.54-0.72,0.945-0.93c0.39-0.24,0.855-0.375,1.35-0.375
		c0.975,0,2.535,0.6,2.535,3.104v4.32h-1.32v-4.17c0-1.186-0.435-2.16-1.68-2.16c-0.855,0-1.515,0.6-1.77,1.32
		c-0.075,0.18-0.09,0.375-0.09,0.63v4.38h-1.32V38.745z"/>
	<path d="M35.829,47.656c0,0.63,0.03,1.245,0.105,1.74h-1.185l-0.12-0.915h-0.045c-0.39,0.57-1.185,1.08-2.22,1.08
		c-1.47,0-2.22-1.035-2.22-2.085c0-1.755,1.56-2.715,4.365-2.7v-0.15c0-0.6-0.165-1.694-1.65-1.68c-0.69,0-1.395,0.195-1.905,0.54
		l-0.3-0.885c0.6-0.375,1.485-0.63,2.4-0.63c2.235,0,2.775,1.515,2.775,2.97V47.656z M34.539,45.691
		c-1.44-0.03-3.075,0.225-3.075,1.635c0,0.87,0.57,1.261,1.23,1.261c0.96,0,1.575-0.601,1.785-1.216
		c0.045-0.135,0.06-0.284,0.06-0.42V45.691z"/>
	<path d="M44.155,48.33c0,1.681-0.345,2.686-1.035,3.33c-0.72,0.646-1.74,0.87-2.655,0.87c-0.87,0-1.83-0.21-2.415-0.6l0.33-1.021
		c0.48,0.315,1.23,0.585,2.13,0.585c1.35,0,2.34-0.705,2.34-2.55v-0.795h-0.03c-0.39,0.675-1.185,1.215-2.31,1.215
		c-1.8,0-3.09-1.529-3.09-3.555c0-2.46,1.605-3.84,3.285-3.84c1.26,0,1.935,0.645,2.265,1.245h0.03l0.045-1.08h1.17
		c-0.045,0.51-0.06,1.095-0.06,1.979V48.33z M42.834,44.986c0-0.21-0.015-0.405-0.075-0.585c-0.24-0.78-0.87-1.41-1.845-1.41
		c-1.26,0-2.16,1.065-2.16,2.76c0,1.41,0.735,2.61,2.145,2.61c0.825,0,1.56-0.51,1.83-1.365c0.075-0.21,0.105-0.465,0.105-0.705
		V44.986z"/>
</g>
<g enable-background="new    ">
	<path d="M49.284,49.561c-1.95,0-3.48-1.44-3.48-3.735c0-2.43,1.605-3.854,3.6-3.854c2.085,0,3.495,1.515,3.495,3.72
		c0,2.7-1.875,3.87-3.6,3.87H49.284z M49.33,48.571c1.26,0,2.205-1.185,2.205-2.835c0-1.229-0.615-2.775-2.175-2.775
		c-1.545,0-2.22,1.44-2.22,2.82c0,1.59,0.9,2.79,2.175,2.79H49.33z"/>
</g>
<g enable-background="new    ">
	<path d="M59.755,49.141c-0.345,0.165-1.11,0.42-2.085,0.42c-2.19,0-3.615-1.485-3.615-3.72c0-2.235,1.53-3.87,3.9-3.87
		c0.78,0,1.47,0.194,1.83,0.39l-0.3,1.005c-0.315-0.165-0.81-0.345-1.53-0.345c-1.665,0-2.565,1.245-2.565,2.76
		c0,1.681,1.08,2.715,2.52,2.715c0.75,0,1.245-0.18,1.62-0.345L59.755,49.141z"/>
</g>
<g enable-background="new    ">
	<path d="M62.049,42.136l1.575,4.29c0.18,0.479,0.36,1.05,0.48,1.484h0.03c0.135-0.435,0.285-0.989,0.465-1.515l1.44-4.26h1.395
		l-1.98,5.175c-0.945,2.49-1.59,3.765-2.49,4.56c-0.66,0.556-1.29,0.78-1.62,0.841l-0.33-1.11c0.33-0.09,0.765-0.3,1.155-0.646
		c0.36-0.284,0.795-0.795,1.11-1.47c0.06-0.135,0.105-0.225,0.105-0.314c0-0.075-0.03-0.181-0.105-0.33l-2.67-6.705H62.049z"/>
</g>
<g enable-background="new    ">
	<path d="M70.224,40.396v1.74h1.89v1.005h-1.89v3.915c0,0.899,0.255,1.41,0.99,1.41c0.36,0,0.57-0.03,0.765-0.09l0.06,1.005
		c-0.255,0.09-0.66,0.18-1.17,0.18c-0.615,0-1.11-0.21-1.425-0.555c-0.36-0.405-0.51-1.051-0.51-1.905v-3.96h-1.125v-1.005h1.125
		v-1.335L70.224,40.396z"/>
</g>
<g enable-background="new    ">
	<path d="M76.464,49.561c-1.95,0-3.48-1.44-3.48-3.735c0-2.43,1.605-3.854,3.6-3.854c2.085,0,3.495,1.515,3.495,3.72
		c0,2.7-1.875,3.87-3.6,3.87H76.464z M76.509,48.571c1.26,0,2.205-1.185,2.205-2.835c0-1.229-0.615-2.775-2.175-2.775
		c-1.545,0-2.22,1.44-2.22,2.82c0,1.59,0.9,2.79,2.175,2.79H76.509z"/>
	<path d="M81.564,48.061c0.405,0.24,1.095,0.51,1.755,0.51c0.945,0,1.395-0.465,1.395-1.08c0-0.63-0.375-0.975-1.335-1.335
		c-1.32-0.479-1.935-1.185-1.935-2.055c0-1.17,0.96-2.13,2.505-2.13c0.735,0,1.38,0.194,1.77,0.45l-0.315,0.944
		c-0.285-0.165-0.81-0.42-1.485-0.42c-0.78,0-1.2,0.45-1.2,0.99c0,0.615,0.42,0.885,1.365,1.245
		c1.245,0.465,1.905,1.095,1.905,2.189c0,1.29-1.005,2.19-2.7,2.19c-0.795,0-1.53-0.21-2.04-0.51L81.564,48.061z"/>
	<path d="M88.314,40.801c-0.495,0-0.825-0.391-0.825-0.855s0.345-0.84,0.855-0.84c0.51,0,0.84,0.375,0.84,0.84
		s-0.33,0.855-0.855,0.855H88.314z M87.684,49.396v-7.26h1.32v7.26H87.684z"/>
	<path d="M91.013,48.061c0.405,0.24,1.095,0.51,1.755,0.51c0.945,0,1.395-0.465,1.395-1.08c0-0.63-0.375-0.975-1.335-1.335
		c-1.32-0.479-1.935-1.185-1.935-2.055c0-1.17,0.96-2.13,2.505-2.13c0.735,0,1.38,0.194,1.77,0.45l-0.315,0.944
		c-0.285-0.165-0.81-0.42-1.485-0.42c-0.78,0-1.2,0.45-1.2,0.99c0,0.615,0.42,0.885,1.365,1.245
		c1.245,0.465,1.905,1.095,1.905,2.189c0,1.29-1.005,2.19-2.7,2.19c-0.795,0-1.53-0.21-2.04-0.51L91.013,48.061z"/>
</g>
<g enable-background="new    ">
	<path d="M245.53,40.421c0.63-0.12,1.455-0.211,2.505-0.211c1.29,0,2.235,0.301,2.835,0.841c0.555,0.479,0.9,1.215,0.9,2.114
		c0,0.915-0.27,1.636-0.795,2.16c-0.69,0.735-1.815,1.11-3.09,1.11c-0.39,0-0.75-0.015-1.05-0.09v4.05h-1.305V40.421z
		 M246.835,45.281c0.285,0.075,0.66,0.105,1.08,0.105c1.59,0,2.535-0.78,2.535-2.146c0-1.35-0.945-1.995-2.385-1.995
		c-0.57,0-1.005,0.061-1.23,0.105V45.281z"/>
</g>
<g enable-background="new    ">
	<path d="M254.02,41.801c-0.495,0-0.825-0.391-0.825-0.855s0.345-0.84,0.855-0.84c0.51,0,0.84,0.375,0.84,0.84
		s-0.33,0.855-0.855,0.855H254.02z M253.39,50.396v-7.26h1.32v7.26H253.39z"/>
	<path d="M256.9,45.101c0-0.765-0.015-1.365-0.06-1.965h1.17l0.075,1.185h0.03c0.36-0.675,1.2-1.35,2.4-1.35
		c1.005,0,2.565,0.6,2.565,3.09v4.335h-1.32v-4.185c0-1.171-0.435-2.16-1.68-2.16c-0.855,0-1.53,0.614-1.77,1.35
		c-0.06,0.165-0.09,0.405-0.09,0.615v4.38h-1.32V45.101z"/>
</g>
<g enable-background="new    ">
	<path d="M268.179,50.561c-1.95,0-3.48-1.44-3.48-3.735c0-2.43,1.605-3.854,3.6-3.854c2.085,0,3.495,1.515,3.495,3.72
		c0,2.7-1.875,3.87-3.6,3.87H268.179z M268.225,49.571c1.26,0,2.205-1.185,2.205-2.835c0-1.229-0.615-2.775-2.175-2.775
		c-1.545,0-2.22,1.44-2.22,2.82c0,1.59,0.9,2.79,2.175,2.79H268.225z"/>
</g>
<g enable-background="new    ">
	<path d="M278.65,50.141c-0.345,0.165-1.11,0.42-2.085,0.42c-2.19,0-3.615-1.485-3.615-3.72c0-2.235,1.53-3.87,3.9-3.87
		c0.78,0,1.47,0.194,1.83,0.39l-0.3,1.005c-0.315-0.165-0.81-0.345-1.53-0.345c-1.665,0-2.565,1.245-2.565,2.76
		c0,1.681,1.08,2.715,2.52,2.715c0.75,0,1.245-0.18,1.62-0.345L278.65,50.141z"/>
</g>
<g enable-background="new    ">
	<path d="M280.944,43.136l1.575,4.29c0.18,0.479,0.36,1.05,0.48,1.484h0.03c0.135-0.435,0.285-0.989,0.465-1.515l1.44-4.26h1.395
		l-1.98,5.175c-0.945,2.49-1.59,3.765-2.49,4.56c-0.66,0.556-1.29,0.78-1.62,0.841l-0.33-1.11c0.33-0.09,0.765-0.3,1.155-0.646
		c0.36-0.284,0.795-0.795,1.11-1.47c0.06-0.135,0.105-0.225,0.105-0.314c0-0.075-0.03-0.181-0.105-0.33l-2.67-6.705H280.944z"/>
</g>
<g enable-background="new    ">
	<path d="M289.119,41.396v1.74h1.89v1.005h-1.89v3.915c0,0.899,0.255,1.41,0.99,1.41c0.36,0,0.57-0.03,0.765-0.09l0.06,1.005
		c-0.255,0.09-0.66,0.18-1.17,0.18c-0.615,0-1.11-0.21-1.425-0.555c-0.36-0.405-0.51-1.051-0.51-1.905v-3.96h-1.125v-1.005h1.125
		v-1.335L289.119,41.396z"/>
</g>
<g enable-background="new    ">
	<path d="M295.359,50.561c-1.95,0-3.48-1.44-3.48-3.735c0-2.43,1.605-3.854,3.6-3.854c2.085,0,3.495,1.515,3.495,3.72
		c0,2.7-1.875,3.87-3.6,3.87H295.359z M295.404,49.571c1.26,0,2.205-1.185,2.205-2.835c0-1.229-0.615-2.775-2.175-2.775
		c-1.545,0-2.22,1.44-2.22,2.82c0,1.59,0.9,2.79,2.175,2.79H295.404z"/>
	<path d="M300.459,49.061c0.405,0.24,1.095,0.51,1.755,0.51c0.945,0,1.395-0.465,1.395-1.08c0-0.63-0.375-0.975-1.335-1.335
		c-1.32-0.479-1.935-1.185-1.935-2.055c0-1.17,0.96-2.13,2.505-2.13c0.735,0,1.38,0.194,1.77,0.45l-0.315,0.944
		c-0.285-0.165-0.81-0.42-1.485-0.42c-0.78,0-1.2,0.45-1.2,0.99c0,0.615,0.42,0.885,1.365,1.245
		c1.245,0.465,1.905,1.095,1.905,2.189c0,1.29-1.005,2.19-2.7,2.19c-0.795,0-1.53-0.21-2.04-0.51L300.459,49.061z"/>
	<path d="M307.209,41.801c-0.495,0-0.825-0.391-0.825-0.855s0.345-0.84,0.855-0.84c0.51,0,0.84,0.375,0.84,0.84
		s-0.33,0.855-0.855,0.855H307.209z M306.579,50.396v-7.26h1.32v7.26H306.579z"/>
	<path d="M309.908,49.061c0.405,0.24,1.095,0.51,1.755,0.51c0.945,0,1.395-0.465,1.395-1.08c0-0.63-0.375-0.975-1.335-1.335
		c-1.32-0.479-1.935-1.185-1.935-2.055c0-1.17,0.96-2.13,2.505-2.13c0.735,0,1.38,0.194,1.77,0.45l-0.315,0.944
		c-0.285-0.165-0.81-0.42-1.485-0.42c-0.78,0-1.2,0.45-1.2,0.99c0,0.615,0.42,0.885,1.365,1.245
		c1.245,0.465,1.905,1.095,1.905,2.189c0,1.29-1.005,2.19-2.7,2.19c-0.795,0-1.53-0.21-2.04-0.51L309.908,49.061z"/>
</g>
<g enable-background="new    ">
	<path d="M467.53,41.436c0.66-0.135,1.619-0.226,2.505-0.226c1.396,0,2.31,0.271,2.94,0.841c0.494,0.435,0.795,1.125,0.795,1.92
		c0,1.319-0.855,2.205-1.905,2.564v0.045c0.765,0.271,1.229,0.99,1.485,2.04c0.33,1.41,0.57,2.386,0.765,2.775h-1.351
		c-0.164-0.285-0.39-1.155-0.66-2.415c-0.299-1.395-0.854-1.92-2.039-1.965h-1.23v4.38h-1.305V41.436z M468.835,46.026h1.335
		c1.396,0,2.28-0.765,2.28-1.92c0-1.305-0.945-1.875-2.325-1.875c-0.63,0-1.065,0.06-1.29,0.12V46.026z"/>
</g>
<g enable-background="new    ">
	<path d="M476.35,47.99c0.029,1.785,1.154,2.521,2.475,2.521c0.945,0,1.529-0.165,2.01-0.36l0.24,0.93
		c-0.465,0.21-1.275,0.466-2.43,0.466c-2.221,0-3.57-1.485-3.57-3.66c0-2.205,1.305-3.931,3.42-3.931
		c2.369,0,2.984,2.085,2.984,3.42c0,0.271-0.015,0.48-0.045,0.631L476.35,47.99z M480.205,47.046
		c0.015-0.825-0.345-2.146-1.815-2.146c-1.35,0-1.92,1.23-2.025,2.146H480.205z"/>
</g>
<g enable-background="new    ">
	<path d="M488.29,51.141c-0.346,0.165-1.109,0.42-2.085,0.42c-2.19,0-3.615-1.485-3.615-3.72c0-2.235,1.53-3.87,3.9-3.87
		c0.78,0,1.47,0.194,1.829,0.39l-0.299,1.005c-0.315-0.165-0.811-0.345-1.53-0.345c-1.665,0-2.565,1.245-2.565,2.76
		c0,1.681,1.08,2.715,2.52,2.715c0.75,0,1.246-0.18,1.621-0.345L488.29,51.141z"/>
</g>
<g enable-background="new    ">
	<path d="M490.495,47.99c0.029,1.785,1.154,2.521,2.475,2.521c0.945,0,1.53-0.165,2.01-0.36l0.24,0.93
		c-0.465,0.21-1.275,0.466-2.43,0.466c-2.221,0-3.57-1.485-3.57-3.66c0-2.205,1.305-3.931,3.42-3.931c2.37,0,2.985,2.085,2.985,3.42
		c0,0.271-0.015,0.48-0.045,0.631L490.495,47.99z M494.35,47.046c0.014-0.825-0.346-2.146-1.815-2.146
		c-1.351,0-1.921,1.23-2.025,2.146H494.35z"/>
	<path d="M497.26,46.506c0-0.931-0.015-1.681-0.06-2.37h1.185l0.075,1.245h0.029c0.525-0.9,1.396-1.41,2.565-1.41
		c1.771,0,3.09,1.484,3.09,3.689c0,2.61-1.604,3.9-3.3,3.9c-0.975,0-1.801-0.42-2.235-1.14h-0.03v3.944h-1.319V46.506z
		 M498.579,48.441c0,0.18,0.016,0.375,0.061,0.54c0.225,0.915,1.035,1.545,1.965,1.545c1.395,0,2.205-1.14,2.205-2.805
		c0-1.455-0.75-2.7-2.145-2.7c-0.9,0-1.756,0.63-2.01,1.62c-0.031,0.18-0.076,0.375-0.076,0.54V48.441z"/>
</g>
<g enable-background="new    ">
	<path d="M507.385,42.396v1.74h1.89v1.005h-1.89v3.915c0,0.899,0.254,1.41,0.989,1.41c0.36,0,0.57-0.03,0.765-0.09l0.061,1.005
		c-0.255,0.09-0.66,0.18-1.17,0.18c-0.615,0-1.109-0.21-1.426-0.555c-0.359-0.405-0.51-1.051-0.51-1.905v-3.96h-1.125v-1.005h1.125
		v-1.335L507.385,42.396z"/>
</g>
<g enable-background="new    ">
	<path d="M513.624,51.561c-1.949,0-3.48-1.44-3.48-3.735c0-2.43,1.605-3.854,3.601-3.854c2.085,0,3.495,1.515,3.495,3.72
		c0,2.7-1.875,3.87-3.6,3.87H513.624z M513.669,50.571c1.26,0,2.205-1.185,2.205-2.835c0-1.229-0.615-2.775-2.175-2.775
		c-1.545,0-2.22,1.44-2.22,2.82c0,1.59,0.9,2.79,2.175,2.79H513.669z"/>
	<path d="M518.919,46.401c0-0.854-0.015-1.59-0.061-2.265h1.156l0.06,1.425h0.045c0.33-0.976,1.14-1.59,2.024-1.59
		c0.136,0,0.24,0.015,0.36,0.045v1.229c-0.149-0.015-0.284-0.029-0.465-0.029c-0.931,0-1.59,0.705-1.771,1.68
		c-0.029,0.195-0.045,0.405-0.045,0.63v3.87h-1.319L518.919,46.401z"/>
	<path d="M526.868,46.865v0.96h-3.704v-0.96H526.868z"/>
	<path d="M528.414,46.101c0-0.765-0.03-1.365-0.06-1.965h1.154l0.061,1.17h0.045c0.404-0.69,1.08-1.335,2.295-1.335
		c0.975,0,1.725,0.6,2.039,1.455h0.031c0.225-0.42,0.524-0.721,0.824-0.945c0.436-0.33,0.9-0.51,1.59-0.51
		c0.976,0,2.4,0.63,2.4,3.149v4.275h-1.29v-4.11c0-1.41-0.524-2.234-1.575-2.234c-0.765,0-1.335,0.555-1.574,1.185
		c-0.061,0.195-0.105,0.436-0.105,0.66v4.5h-1.29v-4.35c0-1.171-0.511-1.995-1.515-1.995c-0.811,0-1.426,0.66-1.635,1.319
		c-0.076,0.195-0.105,0.42-0.105,0.646v4.38h-1.29V46.101z"/>
	<path d="M541.675,47.99c0.029,1.785,1.154,2.521,2.475,2.521c0.945,0,1.529-0.165,2.01-0.36l0.24,0.93
		c-0.465,0.21-1.275,0.466-2.43,0.466c-2.221,0-3.57-1.485-3.57-3.66c0-2.205,1.305-3.931,3.42-3.931
		c2.369,0,2.984,2.085,2.984,3.42c0,0.271-0.015,0.48-0.045,0.631L541.675,47.99z M545.529,47.046
		c0.015-0.825-0.345-2.146-1.815-2.146c-1.35,0-1.92,1.23-2.025,2.146H545.529z"/>
	<path d="M554.709,40.745v8.775c0,0.645,0.015,1.38,0.06,1.875h-1.185l-0.06-1.26h-0.031c-0.404,0.81-1.274,1.425-2.459,1.425
		c-1.756,0-3.121-1.485-3.121-3.69c-0.014-2.43,1.5-3.899,3.256-3.899c1.125,0,1.875,0.524,2.189,1.095h0.03v-4.32H554.709z
		 M553.388,47.091c0-0.181-0.015-0.391-0.06-0.57c-0.195-0.825-0.916-1.515-1.905-1.515c-1.365,0-2.175,1.199-2.175,2.79
		c0,1.484,0.734,2.699,2.145,2.699c0.885,0,1.695-0.6,1.936-1.574c0.045-0.181,0.06-0.36,0.06-0.57V47.091z"/>
	<path d="M557.528,42.801c-0.494,0-0.824-0.391-0.824-0.855s0.345-0.84,0.854-0.84c0.511,0,0.841,0.375,0.841,0.84
		s-0.33,0.855-0.855,0.855H557.528z M556.899,51.396v-7.26h1.319v7.26H556.899z"/>
</g>
<g enable-background="new    ">
	<path d="M565.524,49.656c0,0.63,0.029,1.245,0.104,1.74h-1.185l-0.12-0.915h-0.046c-0.389,0.57-1.185,1.08-2.219,1.08
		c-1.471,0-2.221-1.035-2.221-2.085c0-1.755,1.561-2.715,4.365-2.7v-0.15c0-0.6-0.165-1.694-1.65-1.68
		c-0.689,0-1.395,0.195-1.904,0.54l-0.301-0.885c0.6-0.375,1.485-0.63,2.4-0.63c2.234,0,2.775,1.515,2.775,2.97V49.656z
		 M564.233,47.691c-1.439-0.03-3.074,0.225-3.074,1.635c0,0.87,0.57,1.261,1.23,1.261c0.959,0,1.574-0.601,1.784-1.216
		c0.046-0.135,0.06-0.284,0.06-0.42V47.691z"/>
</g>
<g enable-background="new    ">
	<path d="M569.169,42.396v1.74h1.891v1.005h-1.891v3.915c0,0.899,0.255,1.41,0.99,1.41c0.359,0,0.57-0.03,0.765-0.09l0.06,1.005
		c-0.254,0.09-0.66,0.18-1.17,0.18c-0.615,0-1.109-0.21-1.425-0.555c-0.36-0.405-0.51-1.051-0.51-1.905v-3.96h-1.125v-1.005h1.125
		v-1.335L569.169,42.396z"/>
</g>
<g enable-background="new    ">
	<path d="M573.204,47.99c0.029,1.785,1.154,2.521,2.475,2.521c0.945,0,1.53-0.165,2.01-0.36l0.24,0.93
		c-0.465,0.21-1.275,0.466-2.43,0.466c-2.221,0-3.57-1.485-3.57-3.66c0-2.205,1.305-3.931,3.42-3.931c2.37,0,2.985,2.085,2.985,3.42
		c0,0.271-0.015,0.48-0.045,0.631L573.204,47.99z M577.059,47.046c0.014-0.825-0.346-2.146-1.815-2.146
		c-1.351,0-1.921,1.23-2.025,2.146H577.059z"/>
	<path d="M586.239,40.745v8.775c0,0.645,0.014,1.38,0.059,1.875h-1.184l-0.061-1.26h-0.03c-0.405,0.81-1.274,1.425-2.46,1.425
		c-1.755,0-3.12-1.485-3.12-3.69c-0.015-2.43,1.5-3.899,3.255-3.899c1.125,0,1.875,0.524,2.19,1.095h0.03v-4.32H586.239z
		 M584.919,47.091c0-0.181-0.016-0.391-0.061-0.57c-0.195-0.825-0.915-1.515-1.904-1.515c-1.365,0-2.176,1.199-2.176,2.79
		c0,1.484,0.735,2.699,2.145,2.699c0.886,0,1.695-0.6,1.936-1.574c0.045-0.181,0.061-0.36,0.061-0.57V47.091z"/>
</g>
<g enable-background="new    ">
	<path d="M468.235,65.99c0.029,1.785,1.154,2.521,2.475,2.521c0.945,0,1.53-0.165,2.01-0.36l0.24,0.93
		c-0.465,0.21-1.275,0.466-2.43,0.466c-2.221,0-3.57-1.485-3.57-3.66c0-2.205,1.305-3.931,3.42-3.931c2.37,0,2.985,2.085,2.985,3.42
		c0,0.271-0.015,0.48-0.045,0.631L468.235,65.99z M472.091,65.046c0.014-0.825-0.346-2.146-1.815-2.146
		c-1.351,0-1.921,1.23-2.025,2.146H472.091z"/>
	<path d="M475,64.101c0-0.765-0.015-1.365-0.06-1.965h1.17l0.074,1.185h0.03c0.36-0.675,1.2-1.35,2.399-1.35
		c1.006,0,2.565,0.6,2.565,3.09v4.335h-1.319v-4.185c0-1.171-0.436-2.16-1.681-2.16c-0.854,0-1.53,0.614-1.771,1.35
		c-0.06,0.165-0.09,0.405-0.09,0.615v4.38H475V64.101z"/>
	<path d="M489.594,58.745v8.775c0,0.645,0.016,1.38,0.061,1.875h-1.186l-0.06-1.26h-0.03c-0.404,0.81-1.275,1.425-2.46,1.425
		c-1.755,0-3.12-1.485-3.12-3.69c-0.015-2.43,1.5-3.899,3.256-3.899c1.125,0,1.875,0.524,2.189,1.095h0.029v-4.32H489.594z
		 M488.274,65.091c0-0.181-0.014-0.391-0.06-0.57c-0.194-0.825-0.915-1.515-1.905-1.515c-1.365,0-2.175,1.199-2.175,2.79
		c0,1.484,0.735,2.699,2.146,2.699c0.885,0,1.695-0.6,1.935-1.574c0.046-0.181,0.06-0.36,0.06-0.57V65.091z"/>
</g>
<g enable-background="new    ">
	<path d="M494.739,69.561c-1.949,0-3.479-1.44-3.479-3.735c0-2.43,1.604-3.854,3.601-3.854c2.084,0,3.494,1.515,3.494,3.72
		c0,2.7-1.875,3.87-3.6,3.87H494.739z M494.785,68.571c1.26,0,2.204-1.185,2.204-2.835c0-1.229-0.614-2.775-2.174-2.775
		c-1.545,0-2.221,1.44-2.221,2.82c0,1.59,0.9,2.79,2.176,2.79H494.785z"/>
</g>
<g enable-background="new    ">
	<path d="M505.209,69.141c-0.345,0.165-1.11,0.42-2.085,0.42c-2.189,0-3.615-1.485-3.615-3.72c0-2.235,1.53-3.87,3.9-3.87
		c0.779,0,1.47,0.194,1.83,0.39l-0.301,1.005c-0.314-0.165-0.81-0.345-1.529-0.345c-1.665,0-2.565,1.245-2.565,2.76
		c0,1.681,1.08,2.715,2.521,2.715c0.75,0,1.244-0.18,1.619-0.345L505.209,69.141z"/>
</g>
<g enable-background="new    ">
	<path d="M507.505,62.136l1.574,4.29c0.18,0.479,0.359,1.05,0.48,1.484h0.029c0.135-0.435,0.285-0.989,0.465-1.515l1.44-4.26h1.396
		l-1.98,5.175c-0.945,2.49-1.59,3.765-2.49,4.56c-0.66,0.556-1.289,0.78-1.619,0.841l-0.33-1.11c0.33-0.09,0.765-0.3,1.154-0.646
		c0.36-0.284,0.795-0.795,1.11-1.47c0.06-0.135,0.104-0.225,0.104-0.314c0-0.075-0.029-0.181-0.104-0.33l-2.671-6.705H507.505z"/>
</g>
<g enable-background="new    ">
	<path d="M515.678,60.396v1.74h1.891v1.005h-1.891v3.915c0,0.899,0.256,1.41,0.99,1.41c0.36,0,0.57-0.03,0.766-0.09l0.06,1.005
		c-0.255,0.09-0.66,0.18-1.17,0.18c-0.615,0-1.11-0.21-1.425-0.555c-0.36-0.405-0.51-1.051-0.51-1.905v-3.96h-1.125v-1.005h1.125
		v-1.335L515.678,60.396z"/>
</g>
<g enable-background="new    ">
	<path d="M521.919,69.561c-1.949,0-3.48-1.44-3.48-3.735c0-2.43,1.605-3.854,3.601-3.854c2.085,0,3.495,1.515,3.495,3.72
		c0,2.7-1.875,3.87-3.6,3.87H521.919z M521.964,68.571c1.26,0,2.205-1.185,2.205-2.835c0-1.229-0.615-2.775-2.175-2.775
		c-1.545,0-2.22,1.44-2.22,2.82c0,1.59,0.9,2.79,2.175,2.79H521.964z"/>
	<path d="M527.018,68.061c0.405,0.24,1.096,0.51,1.756,0.51c0.945,0,1.395-0.465,1.395-1.08c0-0.63-0.375-0.975-1.335-1.335
		c-1.319-0.479-1.935-1.185-1.935-2.055c0-1.17,0.959-2.13,2.504-2.13c0.736,0,1.381,0.194,1.771,0.45l-0.315,0.944
		c-0.284-0.165-0.81-0.42-1.484-0.42c-0.779,0-1.2,0.45-1.2,0.99c0,0.615,0.421,0.885,1.365,1.245
		c1.245,0.465,1.905,1.095,1.905,2.189c0,1.29-1.006,2.19-2.7,2.19c-0.795,0-1.53-0.21-2.04-0.51L527.018,68.061z"/>
	<path d="M533.768,60.801c-0.494,0-0.824-0.391-0.824-0.855s0.345-0.84,0.854-0.84c0.511,0,0.841,0.375,0.841,0.84
		s-0.33,0.855-0.855,0.855H533.768z M533.139,69.396v-7.26h1.319v7.26H533.139z"/>
	<path d="M536.469,68.061c0.405,0.24,1.095,0.51,1.755,0.51c0.945,0,1.395-0.465,1.395-1.08c0-0.63-0.375-0.975-1.334-1.335
		c-1.32-0.479-1.936-1.185-1.936-2.055c0-1.17,0.96-2.13,2.505-2.13c0.735,0,1.38,0.194,1.771,0.45l-0.315,0.944
		c-0.284-0.165-0.81-0.42-1.485-0.42c-0.779,0-1.199,0.45-1.199,0.99c0,0.615,0.42,0.885,1.365,1.245
		c1.244,0.465,1.904,1.095,1.904,2.189c0,1.29-1.005,2.19-2.699,2.19c-0.795,0-1.531-0.21-2.041-0.51L536.469,68.061z"/>
</g>
<g>
	<path fill="#FFBF00" stroke="#000000" stroke-width="2" d="M129.741,231.204c-6.691,5.797-10.555,13.472-10.878,21.61
		c-0.521,13.078,8.996,25.897,21.664,29.184c13.573,3.521,30.55-2.377,38.651-13.429l0,0c2.277-3.107,3.83-6.522,4.613-10.149
		c1.875-8.677,0.407-16.654-4.246-23.07c-5.139-7.086-13.651-11.578-23.972-12.646C146.614,221.774,136.957,224.952,129.741,231.204
		z M142.786,273.287c-8.585-2.229-15.283-11.251-14.93-20.115c0.224-5.628,2.985-11.014,7.777-15.166
		c5.372-4.654,12.479-7.028,19.014-6.353c7.741,0.803,13.997,3.991,17.613,8.979c2.196,3.029,3.313,6.662,3.313,10.688
		c0,1.67-0.192,3.408-0.579,5.198c-0.515,2.383-1.55,4.648-3.076,6.73C165.943,271.401,152.874,275.904,142.786,273.287z"/>
</g>
<radialGradient id="XMLID_6_" cx="339.4451" cy="69.5588" r="26.8743" gradientTransform="matrix(1 0 0 -1 -0.0552 334.2856)" gradientUnits="userSpaceOnUse">
	<stop  offset="0.0056" style="stop-color:#B9D7E6"/>
	<stop  offset="1" style="stop-color:#FFFFFF"/>
</radialGradient>
<path fill="url(#XMLID_6_)" d="M360.572,272.097c10.912-29.261-37.41-38.555-43.164-10.85c-2.471,11.897,5.333,24.818,17.798,26.164
	C346.459,288.625,356.643,282.634,360.572,272.097z"/>
<g>
	<path fill="#FFBF00" stroke="#000000" stroke-width="2" d="M319.549,246.835c-5.389,5.294-8.416,12.647-8.416,20.348
		c0,0.437,0.011,0.871,0.029,1.31c0.494,11.104,6.977,20.438,16.917,24.357c10.651,4.199,22.543,2.451,31.036-4.563
		c8.018-6.622,11.47-16.533,9.47-27.192c-1.797-9.573-9.011-17.219-19.297-20.451C338.501,237.255,326.828,239.686,319.549,246.835z
		 M331.382,284.477c-6.592-2.6-10.895-8.878-11.228-16.386l0,0c-0.25-5.622,1.828-11.03,5.702-14.836
		c4.938-4.852,13.077-6.431,20.733-4.024c7.062,2.219,11.978,7.274,13.149,13.524c1.378,7.343-0.938,14.12-6.355,18.594
		C347.418,286.277,338.987,287.476,331.382,284.477z M311.163,268.492L311.163,268.492L311.163,268.492z"/>
</g>
<g enable-background="new    ">
	<path fill="#FF7F00" d="M314.824,320.761c-0.299,0.143-0.962,0.363-1.807,0.363c-1.898,0-3.133-1.286-3.133-3.224
		c0-1.937,1.326-3.354,3.38-3.354c0.676,0,1.274,0.169,1.586,0.338l-0.26,0.871c-0.273-0.144-0.702-0.3-1.326-0.3
		c-1.443,0-2.223,1.079-2.223,2.393c0,1.456,0.936,2.353,2.184,2.353c0.65,0,1.079-0.155,1.404-0.299L314.824,320.761z"/>
</g>
<g enable-background="new    ">
	<path fill="#FF7F00" d="M316.813,314.69l1.365,3.718c0.156,0.416,0.312,0.91,0.416,1.287h0.026
		c0.117-0.377,0.247-0.857,0.403-1.313l1.248-3.692h1.209l-1.716,4.485c-0.819,2.157-1.378,3.263-2.158,3.951
		c-0.572,0.481-1.118,0.677-1.404,0.729l-0.286-0.962c0.286-0.078,0.663-0.26,1.001-0.56c0.312-0.246,0.689-0.688,0.962-1.273
		c0.052-0.117,0.091-0.195,0.091-0.273c0-0.064-0.026-0.155-0.091-0.286l-2.314-5.811H316.813z"/>
</g>
<g enable-background="new    ">
	<path fill="#FF7F00" d="M323.898,313.182v1.508h1.638v0.871h-1.638v3.393c0,0.78,0.221,1.223,0.858,1.223
		c0.312,0,0.494-0.026,0.663-0.078l0.052,0.871c-0.221,0.078-0.572,0.155-1.014,0.155c-0.533,0-0.962-0.182-1.235-0.48
		c-0.312-0.352-0.442-0.91-0.442-1.651v-3.432h-0.975v-0.871h0.975v-1.157L323.898,313.182z"/>
</g>
<g enable-background="new    ">
	<path fill="#FF7F00" d="M329.305,321.124c-1.69,0-3.016-1.248-3.016-3.236c0-2.106,1.391-3.341,3.12-3.341
		c1.807,0,3.029,1.313,3.029,3.224c0,2.34-1.625,3.354-3.12,3.354H329.305z M329.344,320.267c1.092,0,1.911-1.027,1.911-2.457
		c0-1.066-0.533-2.405-1.885-2.405c-1.339,0-1.924,1.248-1.924,2.444c0,1.378,0.78,2.418,1.885,2.418H329.344z"/>
	<path fill="#FF7F00" d="M333.882,316.743c0-0.806-0.013-1.456-0.052-2.054h1.027l0.065,1.079h0.026
		c0.455-0.78,1.209-1.222,2.223-1.222c1.533,0,2.678,1.286,2.678,3.197c0,2.263-1.391,3.38-2.859,3.38
		c-0.846,0-1.561-0.363-1.938-0.987h-0.026v3.419h-1.144V316.743z M335.025,318.421c0,0.155,0.013,0.324,0.052,0.468
		c0.195,0.793,0.897,1.339,1.703,1.339c1.209,0,1.911-0.988,1.911-2.431c0-1.262-0.649-2.341-1.858-2.341
		c-0.78,0-1.521,0.546-1.742,1.404c-0.026,0.156-0.065,0.325-0.065,0.468V318.421z"/>
	<path fill="#FF7F00" d="M341.278,311.751h1.145v9.23h-1.145V311.751z"/>
	<path fill="#FF7F00" d="M348.753,319.474c0,0.546,0.027,1.079,0.092,1.508h-1.027l-0.104-0.793h-0.039
		c-0.338,0.494-1.027,0.936-1.924,0.936c-1.274,0-1.924-0.896-1.924-1.807c0-1.521,1.352-2.353,3.782-2.34v-0.13
		c0-0.521-0.143-1.469-1.43-1.456c-0.599,0-1.209,0.169-1.651,0.468l-0.26-0.767c0.52-0.325,1.287-0.546,2.08-0.546
		c1.938,0,2.404,1.313,2.404,2.573V319.474z M347.635,317.771c-1.248-0.026-2.665,0.195-2.665,1.417
		c0,0.754,0.493,1.092,1.065,1.092c0.832,0,1.365-0.52,1.547-1.053c0.039-0.117,0.053-0.247,0.053-0.364V317.771z"/>
	<path fill="#FF7F00" d="M350.43,319.824c0.352,0.208,0.949,0.442,1.521,0.442c0.818,0,1.209-0.403,1.209-0.937
		c0-0.546-0.325-0.845-1.157-1.156c-1.144-0.416-1.677-1.027-1.677-1.781c0-1.014,0.832-1.846,2.17-1.846
		c0.638,0,1.197,0.169,1.535,0.39l-0.273,0.819c-0.247-0.144-0.702-0.364-1.287-0.364c-0.676,0-1.04,0.39-1.04,0.857
		c0,0.533,0.364,0.768,1.183,1.079c1.08,0.403,1.651,0.949,1.651,1.898c0,1.118-0.871,1.897-2.34,1.897
		c-0.688,0-1.326-0.182-1.769-0.441L350.43,319.824z"/>
	<path fill="#FF7F00" d="M355.735,316.393c0-0.663-0.027-1.184-0.053-1.703h1.001l0.052,1.014h0.039
		c0.352-0.598,0.936-1.156,1.989-1.156c0.845,0,1.495,0.52,1.769,1.261h0.025c0.195-0.364,0.455-0.624,0.715-0.819
		c0.377-0.286,0.78-0.441,1.379-0.441c0.844,0,2.079,0.546,2.079,2.729v3.705h-1.118v-3.563c0-1.222-0.455-1.937-1.365-1.937
		c-0.662,0-1.156,0.481-1.364,1.027c-0.052,0.169-0.091,0.377-0.091,0.571v3.9h-1.118v-3.77c0-1.015-0.442-1.729-1.313-1.729
		c-0.701,0-1.234,0.572-1.416,1.144c-0.066,0.17-0.092,0.364-0.092,0.56v3.796h-1.117V316.393z"/>
</g>
<g enable-background="new    ">
	<path d="M29.211,201.085c0.546-0.104,1.261-0.183,2.171-0.183c1.118,0,1.937,0.26,2.457,0.729c0.481,0.416,0.78,1.053,0.78,1.833
		c0,0.793-0.234,1.417-0.689,1.872c-0.598,0.637-1.573,0.962-2.678,0.962c-0.338,0-0.65-0.014-0.91-0.078v3.51h-1.131V201.085z
		 M30.343,205.297c0.247,0.064,0.572,0.091,0.936,0.091c1.378,0,2.197-0.676,2.197-1.859c0-1.17-0.819-1.729-2.067-1.729
		c-0.494,0-0.871,0.052-1.066,0.091V205.297z"/>
</g>
<g enable-background="new    ">
	<path d="M35.672,208.573c0.351,0.208,0.949,0.442,1.521,0.442c0.819,0,1.209-0.403,1.209-0.937c0-0.546-0.325-0.845-1.157-1.156
		c-1.144-0.416-1.677-1.027-1.677-1.781c0-1.014,0.832-1.846,2.171-1.846c0.637,0,1.196,0.169,1.534,0.39L39,204.504
		c-0.247-0.144-0.702-0.364-1.287-0.364c-0.676,0-1.04,0.39-1.04,0.857c0,0.533,0.364,0.768,1.183,1.079
		c1.079,0.403,1.651,0.949,1.651,1.898c0,1.118-0.871,1.897-2.34,1.897c-0.689,0-1.326-0.182-1.768-0.441L35.672,208.573z"/>
	<path d="M41.626,206.779c0.026,1.547,1.001,2.185,2.145,2.185c0.819,0,1.326-0.144,1.742-0.313l0.208,0.806
		c-0.403,0.183-1.105,0.403-2.106,0.403c-1.924,0-3.094-1.287-3.094-3.172c0-1.911,1.131-3.406,2.964-3.406
		c2.054,0,2.587,1.808,2.587,2.964c0,0.234-0.013,0.416-0.039,0.546L41.626,206.779z M44.967,205.96
		c0.013-0.716-0.299-1.859-1.573-1.859c-1.17,0-1.664,1.065-1.755,1.859H44.967z"/>
	<path d="M52.754,208.014c0,0.649,0.013,1.222,0.052,1.716h-1.014l-0.065-1.027h-0.026c-0.286,0.508-0.962,1.17-2.08,1.17
		c-0.988,0-2.171-0.559-2.171-2.756v-3.679h1.144v3.471c0,1.196,0.377,2.016,1.404,2.016c0.767,0,1.3-0.533,1.508-1.054
		c0.065-0.155,0.104-0.363,0.104-0.585v-3.848h1.144V208.014z"/>
	<path d="M60.086,200.499v7.605c0,0.559,0.013,1.196,0.052,1.625h-1.027l-0.052-1.092h-0.026c-0.351,0.702-1.105,1.234-2.132,1.234
		c-1.521,0-2.704-1.286-2.704-3.197c-0.013-2.106,1.3-3.38,2.821-3.38c0.975,0,1.625,0.454,1.898,0.948h0.026v-3.744H60.086z
		 M58.942,205.998c0-0.155-0.013-0.338-0.052-0.493c-0.169-0.716-0.793-1.313-1.651-1.313c-1.183,0-1.885,1.04-1.885,2.418
		c0,1.287,0.637,2.34,1.859,2.34c0.767,0,1.469-0.52,1.677-1.364c0.039-0.156,0.052-0.313,0.052-0.494V205.998z"/>
	<path d="M64.545,209.872c-1.69,0-3.016-1.248-3.016-3.236c0-2.106,1.391-3.341,3.12-3.341c1.807,0,3.029,1.313,3.029,3.224
		c0,2.34-1.625,3.354-3.12,3.354H64.545z M64.584,209.015c1.092,0,1.911-1.027,1.911-2.457c0-1.066-0.533-2.405-1.885-2.405
		c-1.339,0-1.924,1.248-1.924,2.444c0,1.378,0.78,2.418,1.885,2.418H64.584z"/>
</g>
<g enable-background="new    ">
	<path d="M69.121,205.491c0-0.806-0.013-1.456-0.052-2.054h1.027l0.065,1.079h0.026c0.455-0.78,1.209-1.222,2.223-1.222
		c1.534,0,2.678,1.286,2.678,3.197c0,2.263-1.391,3.38-2.86,3.38c-0.845,0-1.56-0.363-1.937-0.987h-0.026v3.419h-1.144V205.491z
		 M70.265,207.169c0,0.155,0.013,0.324,0.052,0.468c0.195,0.793,0.897,1.339,1.703,1.339c1.209,0,1.911-0.988,1.911-2.431
		c0-1.262-0.65-2.341-1.859-2.341c-0.78,0-1.521,0.546-1.742,1.404c-0.026,0.156-0.065,0.325-0.065,0.468V207.169z"/>
	<path d="M79.092,209.872c-1.69,0-3.016-1.248-3.016-3.236c0-2.106,1.391-3.341,3.12-3.341c1.807,0,3.029,1.313,3.029,3.224
		c0,2.34-1.625,3.354-3.12,3.354H79.092z M79.131,209.015c1.092,0,1.911-1.027,1.911-2.457c0-1.066-0.533-2.405-1.885-2.405
		c-1.339,0-1.924,1.248-1.924,2.444c0,1.378,0.78,2.418,1.885,2.418H79.131z"/>
</g>
<g enable-background="new    ">
	<path d="M89.114,200.499v7.605c0,0.559,0.013,1.196,0.052,1.625h-1.027l-0.052-1.092h-0.026c-0.351,0.702-1.105,1.234-2.132,1.234
		c-1.521,0-2.704-1.286-2.704-3.197c-0.013-2.106,1.3-3.38,2.821-3.38c0.975,0,1.625,0.454,1.898,0.948h0.026v-3.744H89.114z
		 M87.97,205.998c0-0.155-0.013-0.338-0.052-0.493c-0.169-0.716-0.793-1.313-1.651-1.313c-1.183,0-1.885,1.04-1.885,2.418
		c0,1.287,0.637,2.34,1.859,2.34c0.767,0,1.469-0.52,1.677-1.364c0.039-0.156,0.052-0.313,0.052-0.494V205.998z"/>
	<path d="M91.558,202.281c-0.429,0-0.715-0.338-0.715-0.741c0-0.402,0.299-0.728,0.741-0.728s0.728,0.325,0.728,0.728
		c0,0.403-0.286,0.741-0.741,0.741H91.558z M91.012,209.73v-6.292h1.144v6.292H91.012z"/>
	<path d="M99.319,208.014c0,0.649,0.013,1.222,0.052,1.716h-1.014l-0.065-1.027h-0.026c-0.286,0.508-0.962,1.17-2.08,1.17
		c-0.988,0-2.171-0.559-2.171-2.756v-3.679h1.144v3.471c0,1.196,0.377,2.016,1.404,2.016c0.767,0,1.3-0.533,1.508-1.054
		c0.065-0.155,0.104-0.363,0.104-0.585v-3.848h1.144V208.014z"/>
	<path d="M101.217,205.141c0-0.663-0.026-1.184-0.052-1.703h1.001l0.052,1.014h0.039c0.351-0.598,0.936-1.156,1.989-1.156
		c0.845,0,1.495,0.52,1.768,1.261h0.026c0.195-0.364,0.455-0.624,0.715-0.819c0.377-0.286,0.78-0.441,1.378-0.441
		c0.845,0,2.08,0.546,2.08,2.729v3.705h-1.118v-3.563c0-1.222-0.455-1.937-1.365-1.937c-0.663,0-1.157,0.481-1.365,1.027
		c-0.052,0.169-0.091,0.377-0.091,0.571v3.9h-1.118v-3.77c0-1.015-0.442-1.729-1.313-1.729c-0.702,0-1.235,0.572-1.417,1.144
		c-0.065,0.17-0.091,0.364-0.091,0.56v3.796h-1.118V205.141z"/>
</g>
<g enable-background="new    ">
	<path d="M142.183,100.405c0.351,0.208,0.949,0.442,1.521,0.442c0.819,0,1.209-0.403,1.209-0.937c0-0.546-0.325-0.845-1.157-1.156
		c-1.144-0.416-1.677-1.027-1.677-1.781c0-1.014,0.832-1.846,2.171-1.846c0.637,0,1.196,0.169,1.534,0.39l-0.273,0.819
		c-0.247-0.144-0.702-0.364-1.287-0.364c-0.676,0-1.04,0.39-1.04,0.857c0,0.533,0.364,0.768,1.183,1.079
		c1.079,0.403,1.651,0.949,1.651,1.898c0,1.118-0.871,1.897-2.34,1.897c-0.689,0-1.326-0.182-1.768-0.441L142.183,100.405z"/>
	<path d="M150.048,101.704c-1.69,0-3.016-1.248-3.016-3.236c0-2.106,1.391-3.341,3.12-3.341c1.807,0,3.029,1.313,3.029,3.224
		c0,2.34-1.625,3.354-3.12,3.354H150.048z M150.087,100.847c1.092,0,1.911-1.027,1.911-2.457c0-1.066-0.533-2.405-1.885-2.405
		c-1.339,0-1.924,1.248-1.924,2.444c0,1.378,0.78,2.418,1.885,2.418H150.087z"/>
	<path d="M154.624,92.331h1.144v9.23h-1.144V92.331z"/>
	<path d="M158.212,94.113c-0.429,0-0.715-0.338-0.715-0.741c0-0.402,0.299-0.728,0.741-0.728s0.728,0.325,0.728,0.728
		c0,0.403-0.286,0.741-0.741,0.741H158.212z M157.666,101.562V95.27h1.144v6.292H157.666z"/>
	<path d="M166.141,92.331v7.605c0,0.559,0.013,1.196,0.052,1.625h-1.027l-0.052-1.092h-0.026c-0.351,0.702-1.105,1.234-2.132,1.234
		c-1.521,0-2.704-1.286-2.704-3.197c-0.013-2.106,1.3-3.38,2.821-3.38c0.975,0,1.625,0.454,1.898,0.948h0.026v-3.744H166.141z
		 M164.997,97.83c0-0.155-0.013-0.338-0.052-0.493c-0.169-0.716-0.793-1.313-1.651-1.313c-1.183,0-1.885,1.04-1.885,2.418
		c0,1.287,0.637,2.34,1.859,2.34c0.767,0,1.469-0.52,1.677-1.364c0.039-0.156,0.052-0.313,0.052-0.494V97.83z"/>
	<path d="M170.796,97.323c0-0.806-0.013-1.456-0.052-2.054h1.027l0.065,1.079h0.026c0.455-0.78,1.209-1.222,2.223-1.222
		c1.534,0,2.678,1.286,2.678,3.197c0,2.263-1.391,3.38-2.86,3.38c-0.845,0-1.56-0.363-1.937-0.987h-0.026v3.419h-1.144V97.323z
		 M171.939,99.001c0,0.155,0.013,0.324,0.052,0.468c0.195,0.793,0.897,1.339,1.703,1.339c1.209,0,1.911-0.988,1.911-2.431
		c0-1.262-0.65-2.341-1.859-2.341c-0.78,0-1.521,0.546-1.742,1.404c-0.026,0.156-0.065,0.325-0.065,0.468V99.001z"/>
	<path d="M182.625,100.054c0,0.546,0.026,1.079,0.091,1.508h-1.027l-0.104-0.793h-0.039c-0.338,0.494-1.027,0.936-1.924,0.936
		c-1.274,0-1.924-0.896-1.924-1.807c0-1.521,1.352-2.353,3.783-2.34v-0.13c0-0.521-0.143-1.469-1.43-1.456
		c-0.598,0-1.209,0.169-1.651,0.468l-0.26-0.767c0.52-0.325,1.287-0.546,2.08-0.546c1.937,0,2.405,1.313,2.405,2.573V100.054z
		 M181.508,98.351c-1.248-0.026-2.665,0.195-2.665,1.417c0,0.754,0.494,1.092,1.066,1.092c0.832,0,1.365-0.52,1.547-1.053
		c0.039-0.117,0.052-0.247,0.052-0.364V98.351z"/>
</g>
<g enable-background="new    ">
	<path d="M184.471,97.233c0-0.741-0.013-1.378-0.052-1.963h1.001l0.052,1.235h0.039c0.286-0.846,0.988-1.378,1.755-1.378
		c0.117,0,0.208,0.013,0.312,0.038v1.066c-0.13-0.013-0.247-0.026-0.403-0.026c-0.806,0-1.378,0.611-1.534,1.456
		c-0.026,0.169-0.039,0.352-0.039,0.547v3.354h-1.144L184.471,97.233z"/>
</g>
<g enable-background="new    ">
	<path d="M190.399,93.762v1.508h1.638v0.871h-1.638v3.393c0,0.78,0.221,1.223,0.858,1.223c0.312,0,0.494-0.026,0.663-0.078
		l0.052,0.871c-0.221,0.078-0.572,0.155-1.014,0.155c-0.533,0-0.962-0.182-1.235-0.48c-0.312-0.352-0.442-0.91-0.442-1.651v-3.432
		h-0.975V95.27h0.975v-1.157L190.399,93.762z"/>
	<path d="M193.87,94.113c-0.429,0-0.715-0.338-0.715-0.741c0-0.402,0.299-0.728,0.741-0.728s0.728,0.325,0.728,0.728
		c0,0.403-0.286,0.741-0.741,0.741H193.87z M193.324,101.562V95.27h1.144v6.292H193.324z"/>
	<path d="M200.851,101.341c-0.299,0.143-0.962,0.363-1.807,0.363c-1.898,0-3.133-1.286-3.133-3.224c0-1.937,1.326-3.354,3.38-3.354
		c0.676,0,1.274,0.169,1.586,0.338l-0.26,0.871c-0.273-0.144-0.702-0.3-1.326-0.3c-1.443,0-2.223,1.079-2.223,2.393
		c0,1.456,0.936,2.353,2.184,2.353c0.65,0,1.079-0.155,1.404-0.299L200.851,101.341z"/>
	<path d="M202.19,92.331h1.144v9.23h-1.144V92.331z"/>
	<path d="M205.882,98.611c0.026,1.547,1.001,2.185,2.145,2.185c0.819,0,1.326-0.144,1.742-0.313l0.208,0.806
		c-0.403,0.183-1.105,0.403-2.106,0.403c-1.924,0-3.094-1.287-3.094-3.172c0-1.911,1.131-3.406,2.964-3.406
		c2.054,0,2.587,1.808,2.587,2.964c0,0.234-0.013,0.416-0.039,0.546L205.882,98.611z M209.223,97.792
		c0.013-0.716-0.299-1.859-1.573-1.859c-1.17,0-1.664,1.065-1.755,1.859H209.223z"/>
</g>
<g enable-background="new    ">
	<path d="M121.19,285.751c0.546-0.104,1.261-0.183,2.171-0.183c1.118,0,1.937,0.26,2.457,0.729c0.481,0.416,0.78,1.053,0.78,1.833
		c0,0.793-0.234,1.417-0.689,1.872c-0.598,0.637-1.573,0.962-2.678,0.962c-0.338,0-0.65-0.014-0.91-0.078v3.51h-1.131V285.751z
		 M122.321,289.963c0.247,0.064,0.572,0.091,0.936,0.091c1.378,0,2.197-0.676,2.197-1.859c0-1.17-0.819-1.729-2.067-1.729
		c-0.494,0-0.871,0.052-1.066,0.091V289.963z"/>
</g>
<g enable-background="new    ">
	<path d="M128.002,285.165h1.144v3.927h0.026c0.182-0.325,0.468-0.624,0.819-0.807c0.338-0.208,0.741-0.324,1.17-0.324
		c0.845,0,2.197,0.52,2.197,2.69v3.744h-1.144v-3.614c0-1.026-0.377-1.872-1.456-1.872c-0.741,0-1.313,0.521-1.534,1.145
		c-0.065,0.156-0.078,0.325-0.078,0.546v3.796h-1.144V285.165z"/>
	<path d="M139.65,292.888c0,0.546,0.026,1.079,0.091,1.508h-1.027l-0.104-0.793h-0.039c-0.338,0.494-1.027,0.936-1.924,0.936
		c-1.274,0-1.924-0.896-1.924-1.807c0-1.521,1.352-2.353,3.783-2.34v-0.13c0-0.521-0.143-1.469-1.43-1.456
		c-0.598,0-1.209,0.169-1.651,0.468l-0.26-0.767c0.52-0.325,1.287-0.546,2.08-0.546c1.937,0,2.405,1.313,2.405,2.573V292.888z
		 M138.532,291.185c-1.248-0.026-2.665,0.195-2.665,1.417c0,0.754,0.494,1.092,1.066,1.092c0.832,0,1.365-0.52,1.547-1.053
		c0.039-0.117,0.052-0.247,0.052-0.364V291.185z"/>
	<path d="M146.865,293.473c0,1.456-0.299,2.327-0.897,2.886c-0.624,0.56-1.508,0.754-2.301,0.754c-0.754,0-1.586-0.182-2.093-0.52
		l0.286-0.885c0.416,0.273,1.066,0.508,1.846,0.508c1.17,0,2.028-0.611,2.028-2.21v-0.689h-0.026
		c-0.338,0.585-1.027,1.053-2.002,1.053c-1.56,0-2.678-1.325-2.678-3.081c0-2.132,1.391-3.327,2.847-3.327
		c1.092,0,1.677,0.559,1.963,1.078h0.026l0.039-0.936h1.014c-0.039,0.442-0.052,0.949-0.052,1.716V293.473z M145.721,290.573
		c0-0.182-0.013-0.351-0.065-0.507c-0.208-0.676-0.754-1.222-1.599-1.222c-1.092,0-1.872,0.923-1.872,2.392
		c0,1.222,0.637,2.262,1.859,2.262c0.715,0,1.352-0.441,1.586-1.183c0.065-0.182,0.091-0.403,0.091-0.611V290.573z"/>
	<path d="M151.31,294.538c-1.69,0-3.016-1.248-3.016-3.236c0-2.106,1.391-3.341,3.12-3.341c1.807,0,3.029,1.313,3.029,3.224
		c0,2.34-1.625,3.354-3.12,3.354H151.31z M151.349,293.681c1.092,0,1.911-1.027,1.911-2.457c0-1.066-0.533-2.405-1.885-2.405
		c-1.339,0-1.924,1.248-1.924,2.444c0,1.378,0.78,2.418,1.885,2.418H151.349z"/>
	<path d="M155.731,293.239c0.351,0.208,0.949,0.442,1.521,0.442c0.819,0,1.209-0.403,1.209-0.937c0-0.546-0.325-0.845-1.157-1.156
		c-1.144-0.416-1.677-1.027-1.677-1.781c0-1.014,0.832-1.846,2.171-1.846c0.637,0,1.196,0.169,1.534,0.39l-0.273,0.819
		c-0.247-0.144-0.702-0.364-1.287-0.364c-0.676,0-1.04,0.39-1.04,0.857c0,0.533,0.364,0.768,1.183,1.079
		c1.079,0.403,1.651,0.949,1.651,1.898c0,1.118-0.871,1.897-2.34,1.897c-0.689,0-1.326-0.182-1.768-0.441L155.731,293.239z"/>
	<path d="M163.595,294.538c-1.69,0-3.016-1.248-3.016-3.236c0-2.106,1.391-3.341,3.12-3.341c1.807,0,3.029,1.313,3.029,3.224
		c0,2.34-1.625,3.354-3.12,3.354H163.595z M163.635,293.681c1.092,0,1.911-1.027,1.911-2.457c0-1.066-0.533-2.405-1.885-2.405
		c-1.339,0-1.924,1.248-1.924,2.444c0,1.378,0.78,2.418,1.885,2.418H163.635z"/>
	<path d="M168.172,289.807c0-0.663-0.026-1.184-0.052-1.703h1.001l0.052,1.014h0.039c0.351-0.598,0.936-1.156,1.989-1.156
		c0.845,0,1.495,0.52,1.768,1.261h0.026c0.195-0.364,0.455-0.624,0.715-0.819c0.377-0.286,0.78-0.441,1.378-0.441
		c0.845,0,2.08,0.546,2.08,2.729v3.705h-1.118v-3.563c0-1.222-0.455-1.937-1.365-1.937c-0.663,0-1.157,0.481-1.365,1.027
		c-0.052,0.169-0.091,0.377-0.091,0.571v3.9h-1.118v-3.77c0-1.015-0.442-1.729-1.313-1.729c-0.702,0-1.235,0.572-1.417,1.144
		c-0.065,0.17-0.091,0.364-0.091,0.56v3.796h-1.118V289.807z"/>
	<path d="M179.664,291.445c0.026,1.547,1.001,2.185,2.145,2.185c0.819,0,1.326-0.144,1.742-0.313l0.208,0.806
		c-0.403,0.183-1.105,0.403-2.106,0.403c-1.924,0-3.094-1.287-3.094-3.172c0-1.911,1.131-3.406,2.964-3.406
		c2.054,0,2.587,1.808,2.587,2.964c0,0.234-0.013,0.416-0.039,0.546L179.664,291.445z M183.005,290.626
		c0.013-0.716-0.299-1.859-1.573-1.859c-1.17,0-1.664,1.065-1.755,1.859H183.005z"/>
</g>
<g enable-background="new    ">
	<path d="M117.096,300.973c-0.949,1.287-1.625,2.965-1.625,5.33c0,2.314,0.715,3.966,1.625,5.266h-0.884
		c-0.819-1.079-1.703-2.743-1.703-5.278c0.013-2.548,0.884-4.225,1.703-5.317H117.096z"/>
</g>
<g enable-background="new    ">
	<path d="M118.422,309.995v-5.421h-0.871v-0.871h0.871v-0.299c0-0.884,0.208-1.69,0.741-2.197c0.429-0.416,1.001-0.585,1.521-0.585
		c0.416,0,0.754,0.091,0.975,0.182l-0.143,0.885c-0.182-0.078-0.403-0.144-0.741-0.144c-0.962,0-1.222,0.858-1.222,1.82v0.338h1.521
		v0.871h-1.508v5.421H118.422z"/>
</g>
<g enable-background="new    ">
	<path d="M124.519,310.138c-1.69,0-3.016-1.248-3.016-3.236c0-2.106,1.391-3.341,3.12-3.341c1.807,0,3.029,1.313,3.029,3.224
		c0,2.34-1.625,3.354-3.12,3.354H124.519z M124.558,309.281c1.092,0,1.911-1.027,1.911-2.457c0-1.066-0.533-2.405-1.885-2.405
		c-1.339,0-1.924,1.248-1.924,2.444c0,1.378,0.78,2.418,1.885,2.418H124.558z"/>
	<path d="M131.669,310.138c-1.69,0-3.016-1.248-3.016-3.236c0-2.106,1.391-3.341,3.12-3.341c1.807,0,3.029,1.313,3.029,3.224
		c0,2.34-1.625,3.354-3.12,3.354H131.669z M131.708,309.281c1.092,0,1.911-1.027,1.911-2.457c0-1.066-0.533-2.405-1.885-2.405
		c-1.339,0-1.924,1.248-1.924,2.444c0,1.378,0.78,2.418,1.885,2.418H131.708z"/>
</g>
<g enable-background="new    ">
	<path d="M141.691,300.765v7.605c0,0.559,0.013,1.196,0.052,1.625h-1.027l-0.052-1.092h-0.026c-0.351,0.702-1.105,1.234-2.132,1.234
		c-1.521,0-2.704-1.286-2.704-3.197c-0.013-2.106,1.3-3.38,2.821-3.38c0.975,0,1.625,0.454,1.898,0.948h0.026v-3.744H141.691z
		 M140.547,306.264c0-0.155-0.013-0.338-0.052-0.493c-0.169-0.716-0.793-1.313-1.651-1.313c-1.183,0-1.885,1.04-1.885,2.418
		c0,1.287,0.637,2.34,1.859,2.34c0.767,0,1.469-0.52,1.677-1.364c0.039-0.156,0.052-0.313,0.052-0.494V306.264z"/>
</g>
<g enable-background="new    ">
	<path d="M146.787,303.703l1.235,3.523c0.208,0.585,0.377,1.104,0.507,1.625h0.039c0.143-0.521,0.325-1.04,0.533-1.625l1.222-3.523
		h1.196l-2.47,6.292h-1.092l-2.392-6.292H146.787z"/>
</g>
<g enable-background="new    ">
	<path d="M156.849,308.488c0,0.546,0.026,1.079,0.091,1.508h-1.027l-0.104-0.793h-0.039c-0.338,0.494-1.027,0.936-1.924,0.936
		c-1.274,0-1.924-0.896-1.924-1.807c0-1.521,1.352-2.353,3.783-2.34v-0.13c0-0.521-0.143-1.469-1.43-1.456
		c-0.598,0-1.209,0.169-1.651,0.468l-0.26-0.767c0.52-0.325,1.287-0.546,2.08-0.546c1.937,0,2.405,1.313,2.405,2.573V308.488z
		 M155.731,306.784c-1.248-0.026-2.665,0.195-2.665,1.417c0,0.754,0.494,1.092,1.066,1.092c0.832,0,1.365-0.52,1.547-1.053
		c0.039-0.117,0.052-0.247,0.052-0.364V306.784z"/>
	<path d="M163.167,309.775c-0.299,0.143-0.962,0.363-1.807,0.363c-1.898,0-3.133-1.286-3.133-3.224c0-1.937,1.326-3.354,3.38-3.354
		c0.676,0,1.274,0.169,1.586,0.338l-0.26,0.871c-0.273-0.144-0.702-0.3-1.326-0.3c-1.443,0-2.223,1.079-2.223,2.393
		c0,1.456,0.936,2.353,2.184,2.353c0.65,0,1.079-0.155,1.404-0.299L163.167,309.775z"/>
	<path d="M169.771,308.28c0,0.649,0.013,1.222,0.052,1.716h-1.014l-0.065-1.027h-0.026c-0.286,0.508-0.962,1.17-2.08,1.17
		c-0.988,0-2.171-0.559-2.171-2.756v-3.679h1.144v3.471c0,1.196,0.377,2.016,1.404,2.016c0.767,0,1.3-0.533,1.508-1.054
		c0.065-0.155,0.104-0.363,0.104-0.585v-3.848h1.144V308.28z"/>
	<path d="M174.23,310.138c-1.69,0-3.016-1.248-3.016-3.236c0-2.106,1.391-3.341,3.12-3.341c1.807,0,3.029,1.313,3.029,3.224
		c0,2.34-1.625,3.354-3.12,3.354H174.23z M174.269,309.281c1.092,0,1.911-1.027,1.911-2.457c0-1.066-0.533-2.405-1.885-2.405
		c-1.339,0-1.924,1.248-1.924,2.444c0,1.378,0.78,2.418,1.885,2.418H174.269z"/>
	<path d="M178.806,300.765h1.144v9.23h-1.144V300.765z"/>
	<path d="M182.498,307.044c0.026,1.547,1.001,2.185,2.145,2.185c0.819,0,1.326-0.144,1.742-0.313l0.208,0.806
		c-0.403,0.183-1.105,0.403-2.106,0.403c-1.924,0-3.094-1.287-3.094-3.172c0-1.911,1.131-3.406,2.964-3.406
		c2.054,0,2.587,1.808,2.587,2.964c0,0.234-0.013,0.416-0.039,0.546L182.498,307.044z M185.839,306.226
		c0.013-0.716-0.299-1.859-1.573-1.859c-1.17,0-1.664,1.065-1.755,1.859H185.839z"/>
	<path d="M187.672,311.569c0.91-1.287,1.625-2.964,1.625-5.305c0-2.34-0.702-3.99-1.625-5.291h0.884
		c0.819,1.066,1.703,2.743,1.703,5.291c-0.013,2.549-0.884,4.199-1.703,5.305H187.672z"/>
</g>
<line fill="none" stroke="#000000" stroke-width="2" x1="3.39" y1="29.396" x2="666.39" y2="29.396"/>
<g>
	<g enable-background="new    ">
		<path fill="#55D0E5" d="M301.154,67.229h-3.393v3.159h3.796v0.949h-4.94v-8.762h4.745v0.948h-3.601v2.77h3.393V67.229z"/>
	</g>
	<g enable-background="new    ">
		<path fill="#55D0E5" d="M303.519,65.045l0.897,1.339c0.234,0.364,0.429,0.676,0.637,1.027h0.039
			c0.208-0.364,0.416-0.689,0.637-1.027l0.871-1.339h1.248l-2.145,3.042l2.197,3.25h-1.3l-0.923-1.417
			c-0.247-0.364-0.455-0.715-0.676-1.092h-0.026c-0.208,0.377-0.429,0.715-0.663,1.092l-0.91,1.417h-1.261l2.236-3.211l-2.132-3.081
			H303.519z"/>
	</g>
	<g enable-background="new    ">
		<path fill="#55D0E5" d="M310.552,63.537v1.508h1.638v0.871h-1.638v3.393c0,0.78,0.221,1.223,0.858,1.223
			c0.312,0,0.494-0.026,0.663-0.078l0.052,0.871c-0.221,0.078-0.572,0.155-1.014,0.155c-0.533,0-0.962-0.182-1.235-0.48
			c-0.312-0.352-0.442-0.91-0.442-1.651v-3.432h-0.975v-0.871h0.975v-1.157L310.552,63.537z"/>
	</g>
	<g enable-background="new    ">
		<path fill="#55D0E5" d="M313.49,67.008c0-0.741-0.013-1.378-0.052-1.963h1.001l0.052,1.235h0.039
			c0.286-0.846,0.988-1.378,1.755-1.378c0.117,0,0.208,0.013,0.312,0.038v1.066c-0.13-0.013-0.247-0.026-0.403-0.026
			c-0.806,0-1.378,0.611-1.534,1.456c-0.026,0.169-0.039,0.352-0.039,0.547v3.354h-1.144L313.49,67.008z"/>
	</g>
	<g enable-background="new    ">
		<path fill="#55D0E5" d="M322.083,69.829c0,0.546,0.026,1.079,0.091,1.508h-1.027l-0.104-0.793h-0.039
			c-0.338,0.494-1.027,0.936-1.924,0.936c-1.274,0-1.924-0.896-1.924-1.807c0-1.521,1.352-2.353,3.783-2.34v-0.13
			c0-0.521-0.143-1.469-1.43-1.456c-0.598,0-1.209,0.169-1.651,0.468l-0.26-0.767c0.52-0.325,1.287-0.546,2.08-0.546
			c1.937,0,2.405,1.313,2.405,2.573V69.829z M320.966,68.126c-1.248-0.026-2.665,0.195-2.665,1.417c0,0.754,0.494,1.092,1.066,1.092
			c0.832,0,1.365-0.52,1.547-1.053c0.039-0.117,0.052-0.247,0.052-0.364V68.126z"/>
	</g>
	<g enable-background="new    ">
		<path fill="#55D0E5" d="M328.402,71.116c-0.299,0.143-0.962,0.363-1.807,0.363c-1.898,0-3.133-1.286-3.133-3.224
			c0-1.937,1.326-3.354,3.38-3.354c0.676,0,1.274,0.169,1.586,0.338l-0.26,0.871c-0.273-0.144-0.702-0.3-1.326-0.3
			c-1.443,0-2.223,1.079-2.223,2.393c0,1.456,0.936,2.353,2.184,2.353c0.65,0,1.079-0.155,1.404-0.299L328.402,71.116z"/>
	</g>
	<g enable-background="new    ">
		<path fill="#55D0E5" d="M330.311,68.386c0.026,1.547,1.001,2.185,2.145,2.185c0.819,0,1.326-0.144,1.742-0.313l0.208,0.806
			c-0.403,0.183-1.105,0.403-2.106,0.403c-1.924,0-3.094-1.287-3.094-3.172c0-1.911,1.131-3.406,2.964-3.406
			c2.054,0,2.587,1.808,2.587,2.964c0,0.234-0.013,0.416-0.039,0.546L330.311,68.386z M333.652,67.568
			c0.013-0.716-0.299-1.859-1.573-1.859c-1.17,0-1.664,1.065-1.755,1.859H333.652z"/>
		<path fill="#55D0E5" d="M336.174,62.107h1.143v9.23h-1.143V62.107z"/>
		<path fill="#55D0E5" d="M339.216,62.107h1.145v9.23h-1.145V62.107z"/>
		<path fill="#55D0E5" d="M347.522,69.621c0,0.649,0.014,1.222,0.053,1.716h-1.014l-0.065-1.027h-0.026
			c-0.285,0.508-0.961,1.17-2.08,1.17c-0.988,0-2.17-0.559-2.17-2.756v-3.679h1.144v3.471c0,1.196,0.377,2.016,1.403,2.016
			c0.768,0,1.301-0.533,1.508-1.054c0.065-0.155,0.104-0.363,0.104-0.585v-3.848h1.144V69.621z"/>
		<path fill="#55D0E5" d="M349.421,62.107h1.145v9.23h-1.145V62.107z"/>
		<path fill="#55D0E5" d="M356.895,69.829c0,0.546,0.027,1.079,0.092,1.508h-1.027l-0.104-0.793h-0.039
			c-0.338,0.494-1.027,0.936-1.924,0.936c-1.274,0-1.924-0.896-1.924-1.807c0-1.521,1.352-2.353,3.782-2.34v-0.13
			c0-0.521-0.143-1.469-1.43-1.456c-0.599,0-1.209,0.169-1.651,0.468l-0.26-0.767c0.52-0.325,1.287-0.546,2.08-0.546
			c1.938,0,2.404,1.313,2.404,2.573V69.829z M355.778,68.126c-1.248-0.026-2.665,0.195-2.665,1.417c0,0.754,0.493,1.092,1.065,1.092
			c0.832,0,1.365-0.52,1.547-1.053c0.039-0.117,0.053-0.247,0.053-0.364V68.126z"/>
		<path fill="#55D0E5" d="M358.741,67.008c0-0.741-0.012-1.378-0.051-1.963h1l0.053,1.235h0.039
			c0.285-0.846,0.988-1.378,1.754-1.378c0.117,0,0.209,0.013,0.313,0.038v1.066c-0.13-0.013-0.247-0.026-0.402-0.026
			c-0.807,0-1.379,0.611-1.535,1.456c-0.025,0.169-0.039,0.352-0.039,0.547v3.354h-1.143L358.741,67.008z"/>
		<path fill="#55D0E5" d="M365.84,71.337v-5.421h-0.871v-0.871h0.871v-0.299c0-0.884,0.208-1.69,0.741-2.197
			c0.429-0.416,1-0.585,1.521-0.585c0.416,0,0.754,0.091,0.976,0.182l-0.144,0.885c-0.183-0.078-0.403-0.144-0.741-0.144
			c-0.962,0-1.222,0.858-1.222,1.82v0.338h1.521v0.871h-1.508v5.421H365.84z"/>
		<path fill="#55D0E5" d="M369.532,62.107h1.143v9.23h-1.143V62.107z"/>
		<path fill="#55D0E5" d="M377.839,69.621c0,0.649,0.013,1.222,0.052,1.716h-1.015l-0.064-1.027h-0.025
			c-0.287,0.508-0.963,1.17-2.08,1.17c-0.988,0-2.172-0.559-2.172-2.756v-3.679h1.145v3.471c0,1.196,0.377,2.016,1.404,2.016
			c0.767,0,1.299-0.533,1.508-1.054c0.064-0.155,0.104-0.363,0.104-0.585v-3.848h1.145V69.621z"/>
		<path fill="#55D0E5" d="M380.282,63.888c-0.429,0-0.715-0.338-0.715-0.741c0-0.402,0.299-0.728,0.741-0.728
			s0.728,0.325,0.728,0.728c0,0.403-0.285,0.741-0.74,0.741H380.282z M379.737,71.337v-6.292h1.143v6.292H379.737z"/>
		<path fill="#55D0E5" d="M388.212,62.107v7.605c0,0.559,0.014,1.196,0.053,1.625h-1.027l-0.052-1.092h-0.026
			c-0.351,0.702-1.104,1.234-2.131,1.234c-1.521,0-2.705-1.286-2.705-3.197c-0.013-2.106,1.301-3.38,2.821-3.38
			c0.976,0,1.625,0.454,1.897,0.948h0.026v-3.744H388.212z M387.068,67.606c0-0.155-0.013-0.338-0.052-0.493
			c-0.169-0.716-0.793-1.313-1.65-1.313c-1.184,0-1.886,1.04-1.886,2.418c0,1.287,0.638,2.34,1.858,2.34
			c0.768,0,1.47-0.52,1.678-1.364c0.039-0.156,0.052-0.313,0.052-0.494V67.606z"/>
	</g>
</g>
<rect x="254.39" y="94.796" fill="#0060B6" width="8" height="7.2"/>
<rect x="370.539" y="90.172" transform="matrix(-0.743 -0.6693 0.6693 -0.743 590.0374 414.135)" fill="#0060B6" width="8" height="7.2"/>
<rect x="308.379" y="116.022" transform="matrix(-0.7429 -0.6694 0.6694 -0.7429 464.3684 417.598)" fill="#0060B6" width="8" height="7.2"/>
<rect x="345.384" y="265.791" transform="matrix(-0.9665 0.2566 -0.2566 -0.9665 756.198 440.1041)" fill="#0060B6" width="7.999" height="7.2"/>
<rect x="524.322" y="93.338" transform="matrix(-0.9665 0.2566 -0.2566 -0.9665 1063.8293 55.0704)" fill="#0060B6" width="8" height="7.199"/>
<rect x="604.38" y="72.804" transform="matrix(-0.9665 0.2566 -0.2566 -0.9665 1215.9943 -5.8701)" fill="#0060B6" width="7.999" height="7.2"/>
<rect x="416.218" y="130.225" fill="#0060B6" width="8.001" height="7.2"/>
<rect x="268.39" y="138.017" fill="#0060B6" width="8" height="7.2"/>
<rect x="566.42" y="118.425" fill="#0060B6" width="8" height="7.2"/>
<rect x="614.361" y="141.392" transform="matrix(-0.6141 -0.7892 0.7892 -0.6141 883.6967 722.0449)" fill="#0060B6" width="8" height="7.2"/>
<rect x="280.533" y="191.656" transform="matrix(-0.6142 -0.7892 0.7892 -0.6142 305.1913 539.7228)" fill="#0060B6" width="8.001" height="7.199"/>
<g enable-background="new    ">
	<path fill="#FF7F00" d="M25.526,161.17c0.546-0.104,1.261-0.183,2.171-0.183c1.118,0,1.937,0.26,2.457,0.729
		c0.481,0.416,0.78,1.053,0.78,1.833c0,0.793-0.234,1.417-0.689,1.872c-0.598,0.637-1.573,0.962-2.678,0.962
		c-0.338,0-0.65-0.014-0.91-0.078v3.51h-1.131V161.17z M26.657,165.382c0.247,0.064,0.572,0.091,0.936,0.091
		c1.378,0,2.197-0.676,2.197-1.859c0-1.17-0.819-1.729-2.067-1.729c-0.494,0-0.871,0.052-1.066,0.091V165.382z"/>
</g>
<g enable-background="new    ">
	<path fill="#FF7F00" d="M32.339,160.584h1.144v9.23h-1.144V160.584z"/>
	<path fill="#FF7F00" d="M39.813,168.307c0,0.546,0.026,1.079,0.091,1.508h-1.027l-0.104-0.793h-0.039
		c-0.338,0.494-1.027,0.936-1.924,0.936c-1.274,0-1.924-0.896-1.924-1.807c0-1.521,1.352-2.353,3.783-2.34v-0.13
		c0-0.521-0.143-1.469-1.43-1.456c-0.598,0-1.209,0.169-1.651,0.468l-0.26-0.767c0.52-0.325,1.287-0.546,2.08-0.546
		c1.937,0,2.405,1.313,2.405,2.573V168.307z M38.696,166.604c-1.248-0.026-2.665,0.195-2.665,1.417c0,0.754,0.494,1.092,1.066,1.092
		c0.832,0,1.365-0.52,1.547-1.053c0.039-0.117,0.052-0.247,0.052-0.364V166.604z"/>
	<path fill="#FF7F00" d="M41.49,168.657c0.351,0.208,0.949,0.442,1.521,0.442c0.819,0,1.209-0.403,1.209-0.937
		c0-0.546-0.325-0.845-1.157-1.156c-1.144-0.416-1.677-1.027-1.677-1.781c0-1.014,0.832-1.846,2.171-1.846
		c0.637,0,1.196,0.169,1.534,0.39l-0.273,0.819c-0.247-0.144-0.702-0.364-1.287-0.364c-0.676,0-1.04,0.39-1.04,0.857
		c0,0.533,0.364,0.768,1.183,1.079c1.079,0.403,1.651,0.949,1.651,1.898c0,1.118-0.871,1.897-2.34,1.897
		c-0.689,0-1.326-0.182-1.768-0.441L41.49,168.657z"/>
	<path fill="#FF7F00" d="M46.794,165.226c0-0.663-0.026-1.184-0.052-1.703h1.001l0.052,1.014h0.039
		c0.351-0.598,0.936-1.156,1.989-1.156c0.845,0,1.495,0.52,1.768,1.261h0.026c0.195-0.364,0.455-0.624,0.715-0.819
		c0.377-0.286,0.78-0.441,1.378-0.441c0.845,0,2.08,0.546,2.08,2.729v3.705h-1.118v-3.563c0-1.222-0.455-1.937-1.365-1.937
		c-0.663,0-1.157,0.481-1.365,1.027c-0.052,0.169-0.091,0.377-0.091,0.571v3.9h-1.118v-3.77c0-1.015-0.442-1.729-1.313-1.729
		c-0.702,0-1.235,0.572-1.417,1.144c-0.065,0.17-0.091,0.364-0.091,0.56v3.796h-1.118V165.226z"/>
	<path fill="#FF7F00" d="M62.069,168.307c0,0.546,0.026,1.079,0.091,1.508h-1.027l-0.104-0.793H60.99
		c-0.338,0.494-1.027,0.936-1.924,0.936c-1.274,0-1.924-0.896-1.924-1.807c0-1.521,1.352-2.353,3.783-2.34v-0.13
		c0-0.521-0.143-1.469-1.43-1.456c-0.598,0-1.209,0.169-1.651,0.468l-0.26-0.767c0.52-0.325,1.287-0.546,2.08-0.546
		c1.937,0,2.405,1.313,2.405,2.573V168.307z M60.951,166.604c-1.248-0.026-2.665,0.195-2.665,1.417c0,0.754,0.494,1.092,1.066,1.092
		c0.832,0,1.365-0.52,1.547-1.053c0.039-0.117,0.052-0.247,0.052-0.364V166.604z"/>
</g>
<g enable-background="new    ">
	<path fill="#FF7F00" d="M25.488,180.826c0-0.663-0.026-1.184-0.052-1.703h1.001l0.052,1.014h0.039
		c0.351-0.598,0.936-1.156,1.989-1.156c0.845,0,1.495,0.52,1.768,1.261h0.026c0.195-0.364,0.455-0.624,0.715-0.819
		c0.377-0.286,0.78-0.441,1.378-0.441c0.845,0,2.08,0.546,2.08,2.729v3.705h-1.118v-3.563c0-1.222-0.455-1.937-1.365-1.937
		c-0.663,0-1.157,0.481-1.365,1.027c-0.052,0.169-0.091,0.377-0.091,0.571v3.9h-1.118v-3.77c0-1.015-0.442-1.729-1.313-1.729
		c-0.702,0-1.235,0.572-1.417,1.144c-0.065,0.17-0.091,0.364-0.091,0.56v3.796h-1.118V180.826z"/>
	<path fill="#FF7F00" d="M36.979,182.464c0.026,1.547,1.001,2.185,2.145,2.185c0.819,0,1.326-0.144,1.742-0.313l0.208,0.806
		c-0.403,0.183-1.105,0.403-2.106,0.403c-1.924,0-3.094-1.287-3.094-3.172c0-1.911,1.131-3.406,2.964-3.406
		c2.054,0,2.587,1.808,2.587,2.964c0,0.234-0.013,0.416-0.039,0.546L36.979,182.464z M40.32,181.646
		c0.013-0.716-0.299-1.859-1.573-1.859c-1.17,0-1.664,1.065-1.755,1.859H40.32z"/>
	<path fill="#FF7F00" d="M42.843,180.826c0-0.663-0.026-1.184-0.052-1.703h1.001l0.052,1.014h0.039
		c0.351-0.598,0.936-1.156,1.989-1.156c0.845,0,1.495,0.52,1.768,1.261h0.026c0.195-0.364,0.455-0.624,0.715-0.819
		c0.377-0.286,0.78-0.441,1.378-0.441c0.845,0,2.08,0.546,2.08,2.729v3.705H50.72v-3.563c0-1.222-0.455-1.937-1.365-1.937
		c-0.663,0-1.157,0.481-1.365,1.027c-0.052,0.169-0.091,0.377-0.091,0.571v3.9h-1.118v-3.77c0-1.015-0.442-1.729-1.313-1.729
		c-0.702,0-1.235,0.572-1.417,1.144c-0.065,0.17-0.091,0.364-0.091,0.56v3.796h-1.118V180.826z"/>
	<path fill="#FF7F00" d="M53.684,176.185h1.144v3.939h0.026c0.403-0.702,1.131-1.144,2.145-1.144c1.56,0,2.652,1.3,2.652,3.197
		c0,2.263-1.43,3.38-2.834,3.38c-0.91,0-1.625-0.351-2.106-1.183h-0.026l-0.065,1.04h-0.988c0.039-0.429,0.052-1.066,0.052-1.625
		V176.185z M54.828,182.893c0,0.144,0.013,0.286,0.039,0.416c0.221,0.793,0.897,1.34,1.716,1.34c1.209,0,1.911-0.976,1.911-2.418
		c0-1.274-0.65-2.354-1.872-2.354c-0.78,0-1.508,0.546-1.729,1.404c-0.039,0.143-0.065,0.299-0.065,0.48V182.893z"/>
</g>
<g enable-background="new    ">
	<path fill="#FF7F00" d="M61.094,181.086c0-0.741-0.013-1.378-0.052-1.963h1.001l0.052,1.235h0.039
		c0.286-0.846,0.988-1.378,1.755-1.378c0.117,0,0.208,0.013,0.312,0.038v1.066c-0.13-0.013-0.247-0.026-0.403-0.026
		c-0.806,0-1.378,0.611-1.534,1.456c-0.026,0.169-0.039,0.352-0.039,0.547v3.354h-1.144L61.094,181.086z"/>
</g>
<g enable-background="new    ">
	<path fill="#FF7F00" d="M69.687,183.907c0,0.546,0.026,1.079,0.091,1.508h-1.027l-0.104-0.793h-0.039
		c-0.338,0.494-1.027,0.936-1.924,0.936c-1.274,0-1.924-0.896-1.924-1.807c0-1.521,1.352-2.353,3.783-2.34v-0.13
		c0-0.521-0.143-1.469-1.43-1.456c-0.598,0-1.209,0.169-1.651,0.468l-0.26-0.767c0.52-0.325,1.287-0.546,2.08-0.546
		c1.937,0,2.405,1.313,2.405,2.573V183.907z M68.57,182.204c-1.248-0.026-2.665,0.195-2.665,1.417c0,0.754,0.494,1.092,1.066,1.092
		c0.832,0,1.365-0.52,1.547-1.053c0.039-0.117,0.052-0.247,0.052-0.364V182.204z"/>
	<path fill="#FF7F00" d="M71.521,180.826c0-0.663-0.013-1.184-0.052-1.703h1.014l0.065,1.027h0.026c0.312-0.585,1.04-1.17,2.08-1.17
		c0.871,0,2.223,0.52,2.223,2.678v3.757h-1.144v-3.627c0-1.014-0.377-1.872-1.456-1.872c-0.741,0-1.326,0.533-1.534,1.17
		c-0.052,0.144-0.078,0.352-0.078,0.533v3.796h-1.144V180.826z"/>
	<path fill="#FF7F00" d="M79.385,182.464c0.026,1.547,1.001,2.185,2.145,2.185c0.819,0,1.326-0.144,1.742-0.313l0.208,0.806
		c-0.403,0.183-1.105,0.403-2.106,0.403c-1.924,0-3.094-1.287-3.094-3.172c0-1.911,1.131-3.406,2.964-3.406
		c2.054,0,2.587,1.808,2.587,2.964c0,0.234-0.013,0.416-0.039,0.546L79.385,182.464z M82.726,181.646
		c0.013-0.716-0.299-1.859-1.573-1.859c-1.17,0-1.664,1.065-1.755,1.859H82.726z"/>
</g>
<path fill="#BF0000" stroke="#FF7F00" stroke-width="2" d="M138.188,126.551c-0.26,1.73-0.079,3.828,0.686,6.286
	c1.661,5.338,4.834,9.834,5.528,15.365c0.658,5.239-1.462,11.3,0.277,16.283c1.251,3.585,6.309,6.035,9.948,5.336
	c5.17-0.992,7.09-9.41,7.67-13.929c1.261-9.806-0.082-22.275-6.668-30.104C149.397,118.376,139.354,118.792,138.188,126.551z"/>
<path fill="#BF0000" stroke="#FF7F00" stroke-width="2" d="M192.735,56.399c-1.73,0.269-3.677,1.067-5.794,2.531
	c-4.6,3.178-7.943,7.55-13.014,9.863c-4.805,2.19-11.222,1.977-15.46,5.125c-3.048,2.264-3.876,7.821-2.122,11.088
	c2.489,4.638,11.098,3.957,15.583,3.163c9.733-1.726,21.235-6.728,26.742-15.352C203.882,64.656,200.489,55.196,192.735,56.399z"/>
<path fill="#BF0000" stroke="#FF7F00" stroke-width="2" d="M163.989,238.808c-1.453,0.119-2.909,0.514-4.025,0.917
	c-6.002,2.167-10.928,8.139-15.231,12.579c0.886-1.284,2.055-2.552,2.893-3.735c-5.804-3.125-13.731-4.021-15.847,3.9
	c-1.972,7.386,3.372,14.577,10.355,16.288c2.037,0.499,4.142,0.715,6.236,0.625c9.076-0.385,15.898-6.124,20.906-13.23
	c3.534-5.015,3.648-11.062-0.419-15.856C167.724,238.961,165.859,238.656,163.989,238.808z"/>
<rect x="28.39" y="90.796" fill="#0060B6" width="8" height="7.2"/>
<rect x="203.626" y="126.529" fill="#0060B6" width="8" height="7.2"/>
<rect x="98.385" y="99.796" transform="matrix(-0.743 -0.6693 0.6693 -0.743 109.2449 248.7455)" fill="#0060B6" width="8" height="7.2"/>
<rect x="39.391" y="131.564" transform="matrix(-0.6141 -0.7892 0.7892 -0.6141 -36.6307 252.418)" fill="#0060B6" width="8" height="7.2"/>
<polygon fill="#FF7F00" points="103.257,79.313 97.39,76.93 92.101,80.413 92.554,74.097 87.606,70.143 93.754,68.622 
	95.985,62.695 99.333,68.071 105.658,68.362 101.579,73.207 "/>
<polygon fill="#FF7F00" points="331.257,98.778 325.39,96.396 320.101,99.879 320.554,93.563 315.606,89.608 321.754,88.087 
	323.985,82.161 327.333,87.537 333.658,87.828 329.579,92.672 "/>
<polygon fill="#FF7F00" points="429.258,104.778 423.39,102.396 418.101,105.879 418.554,99.563 413.606,95.608 419.754,94.087 
	421.985,88.161 425.333,93.537 431.658,93.828 427.579,98.672 "/>
<polygon fill="#FF7F00" points="622.258,124.778 616.39,122.396 611.101,125.879 611.554,119.563 606.606,115.608 612.755,114.087 
	614.985,108.161 618.333,113.537 624.658,113.828 620.579,118.672 "/>
<polygon fill="#FF7F00" points="372.257,141.778 366.39,139.396 361.101,142.879 361.554,136.563 356.606,132.608 362.754,131.087 
	364.985,125.161 368.333,130.537 374.658,130.828 370.579,135.672 "/>
<polygon fill="#FF7F00" points="539.925,141.278 534.057,138.896 528.768,142.379 529.221,136.063 524.273,132.108 530.422,130.587 
	532.652,124.661 536.001,130.037 542.325,130.328 538.246,135.172 "/>
<polygon fill="#FF7F00" points="496.094,120.612 490.226,118.229 484.937,121.712 485.39,115.396 480.442,111.442 486.591,109.921 
	488.821,103.995 492.17,109.371 498.494,109.662 494.415,114.506 "/>
<g enable-background="new    ">
	<path d="M368.61,298.341l-2.873-8.762h1.235l1.365,4.315c0.364,1.184,0.688,2.263,0.937,3.276h0.025
		c0.247-1.014,0.598-2.119,1.001-3.263l1.481-4.329h1.209l-3.133,8.762H368.61z"/>
</g>
<g enable-background="new    ">
	<path d="M374.071,295.39c0.025,1.547,1,2.185,2.145,2.185c0.818,0,1.326-0.144,1.742-0.313l0.207,0.806
		c-0.402,0.183-1.104,0.403-2.105,0.403c-1.924,0-3.094-1.287-3.094-3.172c0-1.911,1.131-3.406,2.964-3.406
		c2.054,0,2.587,1.808,2.587,2.964c0,0.234-0.013,0.416-0.039,0.546L374.071,295.39z M377.411,294.572
		c0.014-0.716-0.299-1.859-1.572-1.859c-1.17,0-1.664,1.065-1.756,1.859H377.411z"/>
	<path d="M379.777,297.184c0.351,0.208,0.949,0.442,1.521,0.442c0.819,0,1.209-0.403,1.209-0.937c0-0.546-0.324-0.845-1.156-1.156
		c-1.145-0.416-1.678-1.027-1.678-1.781c0-1.014,0.832-1.846,2.172-1.846c0.637,0,1.195,0.169,1.533,0.39l-0.272,0.819
		c-0.247-0.144-0.702-0.364-1.287-0.364c-0.676,0-1.04,0.39-1.04,0.857c0,0.533,0.364,0.768,1.184,1.079
		c1.078,0.403,1.65,0.949,1.65,1.898c0,1.118-0.871,1.897-2.34,1.897c-0.689,0-1.326-0.182-1.768-0.441L379.777,297.184z"/>
	<path d="M385.628,290.892c-0.43,0-0.716-0.338-0.716-0.741c0-0.402,0.3-0.728,0.741-0.728s0.729,0.325,0.729,0.728
		c0,0.403-0.287,0.741-0.742,0.741H385.628z M385.081,298.341v-6.292h1.145v6.292H385.081z"/>
	<path d="M392.608,298.12c-0.299,0.143-0.962,0.363-1.807,0.363c-1.898,0-3.133-1.286-3.133-3.224c0-1.937,1.325-3.354,3.379-3.354
		c0.676,0,1.274,0.169,1.586,0.338l-0.26,0.871c-0.272-0.144-0.701-0.3-1.326-0.3c-1.442,0-2.223,1.079-2.223,2.393
		c0,1.456,0.936,2.353,2.184,2.353c0.65,0,1.08-0.155,1.404-0.299L392.608,298.12z"/>
	<path d="M393.948,289.111h1.143v9.23h-1.143V289.111z"/>
	<path d="M397.639,295.39c0.025,1.547,1.001,2.185,2.145,2.185c0.819,0,1.326-0.144,1.742-0.313l0.208,0.806
		c-0.403,0.183-1.104,0.403-2.106,0.403c-1.924,0-3.094-1.287-3.094-3.172c0-1.911,1.131-3.406,2.965-3.406
		c2.054,0,2.586,1.808,2.586,2.964c0,0.234-0.012,0.416-0.039,0.546L397.639,295.39z M400.98,294.572
		c0.013-0.716-0.299-1.859-1.573-1.859c-1.17,0-1.664,1.065-1.755,1.859H400.98z"/>
</g>
<path fill="#BF0000" d="M514.042,177.968c-1.813,1.844-8.021,5.078-7.684,7.793c0.252,2.029,2.724,2.562,3.996,1.028
	C512.273,184.475,511.746,180.302,514.042,177.968z"/>
<path fill="#BF0000" d="M529.716,184.872c-1.121,2.331-5.95,7.396-4.754,9.857c0.895,1.839,3.404,1.544,4.113-0.317
	C530.144,191.601,528.297,187.823,529.716,184.872z"/>
<path fill="#BF0000" d="M545.857,186.693c0.089,2.584-1.837,9.313,0.364,10.938c1.646,1.213,3.732-0.213,3.496-2.191
	C549.359,192.454,545.97,189.965,545.857,186.693z"/>
<path fill="#BF0000" d="M561.643,183.599c1.039,2.368,1.739,9.332,4.386,10.027c1.979,0.519,3.391-1.579,2.438-3.33
	C567.028,187.656,562.958,186.597,561.643,183.599z"/>
<path fill="#BF0000" d="M573.159,176.26c1.684,1.963,4.376,8.423,7.11,8.319c2.043-0.079,2.784-2.496,1.364-3.895
	C579.491,178.576,575.289,178.746,573.159,176.26z"/>
<path fill="#006B33" d="M543.052,182.009c-0.162,0.397-0.256,0.771,0.08,1.001c0.247,0.168,1.411,0.074,1.63-0.069
	c0.556-0.363,0.16-1.497,0.236-2.024c0.104-0.694,0.498-1.688,0.893-2.269c1.172-1.722,2.714-2.997,3.184-5.104
	c0.362-1.628,0.188-3.669-1.565-4.397c-0.709-0.295-1.724,0.147-1.374,1.13c0.21,0.594,0.926,0.857,1.146,1.521
	c0.207,0.625,0.109,1.222-0.195,1.796c-0.555,1.04-1.871,1.894-3.069,1.795c-1.468-0.121-2.899-1.331-2.919-2.873
	c-0.013-0.997,2.241-3.021,0.892-3.592c-1.571-0.664-2.721,2.624-2.863,3.676c-0.354,2.598,1.725,3.846,3.115,5.669
	c0.537,0.704,1.09,1.762,1.153,2.663C543.415,181.245,543.203,181.637,543.052,182.009z"/>
<polygon fill="#FF7F00" points="553.499,168.504 547.202,169.172 544.183,174.739 541.601,168.957 535.373,167.806 540.075,163.563 
	539.245,157.286 544.734,160.445 550.448,157.716 549.138,163.913 "/>
<path fill="#006B33" d="M478.202,162.135c-0.162,0.398-0.256,0.771,0.08,1.001c0.247,0.168,1.411,0.074,1.63-0.069
	c0.557-0.363,0.16-1.497,0.237-2.024c0.104-0.694,0.498-1.688,0.892-2.269c1.173-1.722,2.715-2.997,3.185-5.104
	c0.362-1.628,0.187-3.669-1.566-4.397c-0.709-0.295-1.723,0.147-1.374,1.13c0.21,0.594,0.927,0.857,1.146,1.521
	c0.207,0.625,0.108,1.222-0.196,1.796c-0.554,1.04-1.871,1.894-3.069,1.795c-1.468-0.121-2.898-1.331-2.919-2.873
	c-0.013-0.997,2.241-3.021,0.893-3.592c-1.572-0.664-2.722,2.624-2.864,3.676c-0.354,2.599,1.725,3.846,3.116,5.669
	c0.537,0.704,1.089,1.762,1.152,2.663C478.565,161.371,478.354,161.763,478.202,162.135z"/>
<path fill="#006B33" d="M507.872,167.108c-0.354,0.243-0.639,0.503-0.483,0.879c0.113,0.276,1.137,0.84,1.397,0.841
	c0.664,0.003,0.958-1.161,1.313-1.56c0.468-0.521,1.346-1.134,1.993-1.4c1.927-0.791,3.916-1.007,5.469-2.507
	c1.2-1.159,2.178-2.959,1.116-4.532c-0.431-0.638-1.52-0.826-1.771,0.187c-0.15,0.611,0.3,1.226,0.119,1.901
	c-0.172,0.635-0.583,1.081-1.154,1.391c-1.033,0.563-2.604,0.55-3.551-0.193c-1.158-0.909-1.687-2.708-0.853-4.005
	c0.538-0.838,3.535-1.288,2.723-2.507c-0.946-1.42-3.716,0.691-4.415,1.49c-1.728,1.973-0.68,4.16-0.522,6.448
	c0.061,0.883-0.063,2.07-0.506,2.857C508.597,166.671,508.203,166.882,507.872,167.108z"/>
<path fill="#006B33" d="M578.55,165.792c0.147,0.402,0.331,0.744,0.731,0.687c0.296-0.042,1.095-0.895,1.16-1.146
	c0.167-0.644-0.889-1.215-1.187-1.658c-0.392-0.583-0.768-1.584-0.865-2.278c-0.291-2.063-0.007-4.043-1.077-5.919
	c-0.827-1.449-2.33-2.84-4.117-2.2c-0.723,0.259-1.176,1.268-0.256,1.761c0.554,0.298,1.262,0.012,1.871,0.354
	c0.573,0.323,0.903,0.831,1.063,1.461c0.29,1.143-0.109,2.66-1.063,3.394c-1.167,0.896-3.04,0.966-4.092-0.162
	c-0.681-0.729-0.375-3.744-1.757-3.258c-1.609,0.565-0.248,3.771,0.354,4.646c1.484,2.161,3.862,1.688,6.119,2.1
	c0.87,0.16,1.99,0.572,2.645,1.195C578.305,164.982,578.411,165.415,578.55,165.792z"/>
<path fill="#006B33" d="M609.552,163.756c-0.162,0.397-0.256,0.771,0.08,1.001c0.247,0.168,1.411,0.074,1.63-0.069
	c0.556-0.363,0.16-1.497,0.237-2.024c0.103-0.694,0.497-1.688,0.892-2.269c1.172-1.722,2.714-2.997,3.184-5.104
	c0.362-1.628,0.188-3.669-1.565-4.397c-0.709-0.295-1.724,0.147-1.374,1.13c0.21,0.594,0.926,0.857,1.146,1.521
	c0.207,0.625,0.109,1.222-0.195,1.796c-0.555,1.04-1.871,1.894-3.069,1.795c-1.468-0.121-2.899-1.331-2.919-2.873
	c-0.013-0.997,2.241-3.021,0.892-3.592c-1.571-0.664-2.721,2.624-2.863,3.676c-0.354,2.598,1.725,3.846,3.115,5.669
	c0.537,0.704,1.09,1.762,1.153,2.663C609.914,162.993,609.702,163.385,609.552,163.756z"/>
<polygon fill="#FF7F00" points="581.258,93.445 575.39,91.063 570.101,94.546 570.554,88.229 565.606,84.275 571.755,82.754 
	573.985,76.828 577.333,82.204 583.658,82.495 579.579,87.339 "/>
<g>
	<g>
		<path fill="#FFBF00" stroke="#000000" stroke-width="2" d="M571.68,241.602c-8.25,2.959-14.877,9.619-18.184,18.273
			c-3.375,8.834-2.854,18.432,1.427,26.331c9.82,18.121,31.61,20.599,48.061,13.679c8.034-3.38,14.128-11.505,16.302-21.734
			c0.567-2.67,0.845-5.346,0.845-7.962c0-8.029-2.604-15.511-7.39-20.608C603.202,239.42,583.809,237.252,571.68,241.602z
			 M562.836,281.917c-3.028-5.588-3.368-12.451-0.932-18.83c2.368-6.199,7.038-10.942,12.813-13.013
			c9.045-3.244,24.759-1.477,31.461,5.664l0,0c4.294,4.573,5.982,12.637,4.304,20.54c-1.562,7.35-5.669,13.072-10.988,15.312
			C586.78,296.938,570.105,295.333,562.836,281.917z M612.74,249.58L612.74,249.58L612.74,249.58z"/>
	</g>
	<path fill="#BF0000" d="M559.9,287.337c-2.322,1.14-9.249,2.138-9.83,4.812c-0.434,1.998,1.724,3.319,3.432,2.292
		C556.078,292.892,556.962,288.78,559.9,287.337z"/>
	<path fill="#BF0000" d="M571.826,295.773c-1.548,2.073-7.26,6.118-6.558,8.762c0.523,1.979,3.045,2.17,4.099,0.479
		C570.955,302.459,569.867,298.397,571.826,295.773z"/>
	<path fill="#BF0000" d="M588.492,298.675c-0.565,2.522-4.129,8.549-2.409,10.676c1.286,1.591,3.666,0.737,3.938-1.237
		C590.427,305.134,587.774,301.87,588.492,298.675z"/>
	<path fill="#BF0000" d="M606.068,294.149c1.039,2.369,1.739,9.332,4.386,10.027c1.979,0.52,3.391-1.578,2.438-3.33
		C611.454,298.206,607.385,297.147,606.068,294.149z"/>
	<path fill="#BF0000" d="M614.203,281.657c2.294,1.194,7.2,6.186,9.698,5.069c1.867-0.834,1.654-3.354-0.185-4.122
		C620.942,281.446,617.106,283.169,614.203,281.657z"/>
	<path fill="#BF0000" d="M603.451,248.427c1.903-1.752,8.265-4.672,8.063-7.401c-0.151-2.039-2.594-2.692-3.94-1.225
		C605.542,242.018,605.86,246.21,603.451,248.427z"/>
	<path fill="#BF0000" d="M586.72,243.251c0.2-2.577,2.864-9.05,0.857-10.909c-1.5-1.391-3.732-0.205-3.719,1.787
		C583.883,237.135,586.973,239.987,586.72,243.251z"/>
	<path fill="#BF0000" d="M568.983,247.301c-1.287-2.244-2.735-9.092-5.439-9.496c-2.022-0.304-3.2,1.934-2.064,3.572
		C563.192,243.848,567.354,244.461,568.983,247.301z"/>
	<path fill="#BF0000" d="M558.057,259.69c-1.882-1.773-5.245-7.912-7.953-7.518c-2.021,0.294-2.504,2.775-0.943,4.018
		C551.515,258.058,555.676,257.444,558.057,259.69z"/>
	<path fill="#BF0000" d="M555.183,273.493c-2.5-0.659-8.389-4.442-10.578-2.803c-1.636,1.228-0.873,3.637,1.091,3.979
		C548.656,275.187,552.018,272.658,555.183,273.493z"/>
	<path fill="#BF0000" d="M614.164,263.222c2.587-0.074,9.305,1.889,10.94-0.303c1.224-1.64-0.19-3.734-2.172-3.51
		C619.945,259.751,617.438,263.127,614.164,263.222z"/>
	<path fill="#006B33" d="M584.643,297.14c-0.162,0.397-0.256,0.772,0.08,1.001c0.247,0.168,1.411,0.074,1.63-0.067
		c0.556-0.364,0.16-1.498,0.237-2.025c0.103-0.693,0.498-1.688,0.892-2.269c1.172-1.722,2.714-2.995,3.185-5.104
		c0.361-1.628,0.187-3.669-1.566-4.397c-0.709-0.295-1.723,0.146-1.374,1.132c0.21,0.593,0.926,0.856,1.146,1.521
		c0.207,0.624,0.109,1.222-0.195,1.796c-0.555,1.04-1.871,1.896-3.069,1.796c-1.468-0.121-2.898-1.331-2.919-2.872
		c-0.013-0.997,2.241-3.022,0.893-3.593c-1.572-0.663-2.722,2.624-2.864,3.676c-0.354,2.6,1.725,3.848,3.116,5.669
		c0.537,0.704,1.089,1.764,1.152,2.664C585.007,296.376,584.795,296.768,584.643,297.14z"/>
	<path fill="#006B33" d="M608.84,255.866c0.407-0.135,0.754-0.308,0.71-0.711c-0.032-0.297-0.858-1.121-1.109-1.195
		c-0.637-0.188-1.244,0.849-1.695,1.134c-0.594,0.371-1.607,0.716-2.304,0.792c-2.071,0.224-4.042-0.123-5.95,0.887
		c-1.476,0.78-2.914,2.238-2.331,4.046c0.236,0.73,1.229,1.215,1.751,0.312c0.316-0.543,0.054-1.26,0.414-1.858
		c0.342-0.563,0.859-0.875,1.494-1.016c1.151-0.253,2.656,0.195,3.358,1.172c0.858,1.195,0.869,3.069-0.293,4.084
		c-0.751,0.656-3.755,0.256-3.313,1.652c0.514,1.626,3.761,0.368,4.655-0.205c2.207-1.414,1.809-3.808,2.294-6.048
		c0.188-0.864,0.635-1.972,1.279-2.604C608.021,256.083,608.458,255.992,608.84,255.866z"/>
	<path fill="#006B33" d="M564.049,254.762c-0.238-0.357-0.495-0.646-0.873-0.496c-0.277,0.109-0.854,1.125-0.859,1.387
		c-0.011,0.664,1.148,0.976,1.542,1.334c0.516,0.477,1.116,1.361,1.374,2.014c0.765,1.937,0.952,3.929,2.432,5.503
		c1.145,1.215,2.931,2.217,4.519,1.176c0.643-0.42,0.847-1.507-0.162-1.771c-0.609-0.16-1.229,0.282-1.902,0.094
		c-0.633-0.181-1.071-0.599-1.376-1.173c-0.548-1.042-0.515-2.612,0.241-3.549c0.925-1.146,2.729-1.649,4.018-0.799
		c0.831,0.549,1.238,3.554,2.47,2.757c1.433-0.928-0.643-3.726-1.431-4.436c-1.949-1.753-4.15-0.735-6.44-0.61
		c-0.884,0.05-2.069-0.09-2.851-0.543C564.476,255.493,564.271,255.096,564.049,254.762z"/>
	<polygon fill="#FF7F00" points="594.514,282.944 588.223,283.663 585.247,289.251 582.621,283.49 576.385,282.386 581.053,278.108 
		580.176,271.836 585.687,274.954 591.381,272.18 590.118,278.386 	"/>
	<polygon fill="#FF7F00" points="602.11,270.336 595.945,268.89 591.26,273.15 590.729,266.84 585.229,263.7 591.066,261.246 
		592.354,255.044 596.494,259.836 602.787,259.145 599.509,264.563 	"/>
	<polygon fill="#FF7F00" points="586.052,263.286 580.636,266.571 580.272,272.893 575.477,268.758 569.351,270.368 
		571.801,264.526 568.379,259.2 574.689,259.723 578.698,254.821 580.15,260.986 	"/>
</g>
<g enable-background="new    ">
	<path d="M552.963,323.859c-0.403,0.208-1.248,0.416-2.313,0.416c-2.471,0-4.316-1.56-4.316-4.445c0-2.756,1.859-4.603,4.576-4.603
		c1.078,0,1.781,0.234,2.08,0.391l-0.287,0.923c-0.416-0.208-1.026-0.364-1.754-0.364c-2.055,0-3.42,1.313-3.42,3.614
		c0,2.158,1.235,3.522,3.354,3.522c0.702,0,1.403-0.143,1.858-0.363L552.963,323.859z"/>
</g>
<g enable-background="new    ">
	<path d="M556.745,324.275c-1.689,0-3.016-1.248-3.016-3.236c0-2.106,1.391-3.341,3.12-3.341c1.808,0,3.029,1.313,3.029,3.224
		c0,2.34-1.625,3.354-3.12,3.354H556.745z M556.784,323.417c1.093,0,1.912-1.027,1.912-2.457c0-1.066-0.533-2.405-1.885-2.405
		c-1.34,0-1.925,1.248-1.925,2.444c0,1.378,0.78,2.418,1.886,2.418H556.784z"/>
</g>
<g enable-background="new    ">
	<path d="M565.755,322.624c0,0.546,0.026,1.079,0.092,1.508h-1.027l-0.104-0.793h-0.038c-0.339,0.494-1.027,0.936-1.925,0.936
		c-1.274,0-1.924-0.896-1.924-1.807c0-1.521,1.353-2.353,3.782-2.34v-0.13c0-0.521-0.143-1.469-1.43-1.456
		c-0.598,0-1.209,0.169-1.65,0.468l-0.26-0.767c0.52-0.325,1.287-0.546,2.08-0.546c1.937,0,2.404,1.313,2.404,2.573V322.624z
		 M564.637,320.921c-1.248-0.026-2.666,0.195-2.666,1.417c0,0.754,0.494,1.092,1.066,1.092c0.832,0,1.365-0.52,1.547-1.053
		c0.039-0.117,0.053-0.247,0.053-0.364V320.921z"/>
</g>
<g enable-background="new    ">
	<path d="M568.914,316.332v1.508h1.638v0.871h-1.638v3.393c0,0.78,0.221,1.223,0.858,1.223c0.312,0,0.494-0.026,0.662-0.078
		l0.053,0.871c-0.221,0.078-0.572,0.155-1.014,0.155c-0.533,0-0.963-0.182-1.236-0.48c-0.312-0.352-0.441-0.91-0.441-1.651v-3.432
		h-0.975v-0.871h0.975v-1.157L568.914,316.332z"/>
</g>
<g enable-background="new    ">
	<path d="M572.409,321.181c0.026,1.547,1.002,2.185,2.146,2.185c0.819,0,1.325-0.144,1.741-0.313l0.209,0.806
		c-0.403,0.183-1.105,0.403-2.106,0.403c-1.924,0-3.094-1.287-3.094-3.172c0-1.911,1.131-3.406,2.964-3.406
		c2.055,0,2.587,1.808,2.587,2.964c0,0.234-0.013,0.416-0.039,0.546L572.409,321.181z M575.751,320.363
		c0.013-0.716-0.299-1.859-1.573-1.859c-1.171,0-1.664,1.065-1.755,1.859H575.751z"/>
	<path d="M583.706,314.902v7.605c0,0.559,0.014,1.196,0.053,1.625h-1.027l-0.053-1.092h-0.025c-0.352,0.702-1.105,1.234-2.132,1.234
		c-1.521,0-2.704-1.286-2.704-3.197c-0.014-2.106,1.3-3.38,2.82-3.38c0.976,0,1.625,0.454,1.898,0.948h0.025v-3.744H583.706z
		 M582.561,320.401c0-0.155-0.012-0.338-0.051-0.493c-0.17-0.716-0.793-1.313-1.651-1.313c-1.183,0-1.886,1.04-1.886,2.418
		c0,1.287,0.638,2.34,1.859,2.34c0.768,0,1.469-0.52,1.678-1.364c0.039-0.156,0.051-0.313,0.051-0.494V320.401z"/>
</g>
<g enable-background="new    ">
	<path d="M588.802,317.84l1.235,3.523c0.207,0.585,0.377,1.104,0.506,1.625h0.039c0.144-0.521,0.326-1.04,0.533-1.625l1.223-3.523
		h1.195l-2.47,6.292h-1.092l-2.392-6.292H588.802z"/>
</g>
<g enable-background="new    ">
	<path d="M595.121,321.181c0.026,1.547,1.001,2.185,2.146,2.185c0.818,0,1.325-0.144,1.741-0.313l0.208,0.806
		c-0.402,0.183-1.105,0.403-2.105,0.403c-1.924,0-3.094-1.287-3.094-3.172c0-1.911,1.131-3.406,2.963-3.406
		c2.055,0,2.588,1.808,2.588,2.964c0,0.234-0.014,0.416-0.039,0.546L595.121,321.181z M598.462,320.363
		c0.014-0.716-0.299-1.859-1.572-1.859c-1.171,0-1.664,1.065-1.756,1.859H598.462z"/>
	<path d="M600.827,322.975c0.352,0.208,0.949,0.442,1.521,0.442c0.818,0,1.209-0.403,1.209-0.937c0-0.546-0.324-0.845-1.156-1.156
		c-1.145-0.416-1.678-1.027-1.678-1.781c0-1.014,0.832-1.846,2.171-1.846c0.638,0,1.196,0.169,1.534,0.39l-0.273,0.819
		c-0.246-0.144-0.701-0.364-1.287-0.364c-0.676,0-1.039,0.39-1.039,0.857c0,0.533,0.363,0.768,1.183,1.079
		c1.079,0.403,1.651,0.949,1.651,1.898c0,1.118-0.871,1.897-2.34,1.897c-0.689,0-1.326-0.182-1.769-0.441L600.827,322.975z"/>
	<path d="M606.677,316.683c-0.429,0-0.716-0.338-0.716-0.741c0-0.402,0.3-0.728,0.742-0.728c0.441,0,0.728,0.325,0.728,0.728
		c0,0.403-0.286,0.741-0.741,0.741H606.677z M606.132,324.132v-6.292h1.144v6.292H606.132z"/>
	<path d="M613.659,323.911c-0.3,0.143-0.963,0.363-1.808,0.363c-1.897,0-3.133-1.286-3.133-3.224c0-1.937,1.325-3.354,3.38-3.354
		c0.676,0,1.273,0.169,1.586,0.338l-0.26,0.871c-0.273-0.144-0.702-0.3-1.326-0.3c-1.443,0-2.223,1.079-2.223,2.393
		c0,1.456,0.936,2.353,2.184,2.353c0.65,0,1.079-0.155,1.404-0.299L613.659,323.911z"/>
	<path d="M614.998,314.902h1.144v9.23h-1.144V314.902z"/>
	<path d="M618.69,321.181c0.025,1.547,1,2.185,2.145,2.185c0.818,0,1.326-0.144,1.742-0.313l0.207,0.806
		c-0.402,0.183-1.104,0.403-2.105,0.403c-1.924,0-3.094-1.287-3.094-3.172c0-1.911,1.131-3.406,2.964-3.406
		c2.054,0,2.587,1.808,2.587,2.964c0,0.234-0.013,0.416-0.039,0.546L618.69,321.181z M622.03,320.363
		c0.014-0.716-0.299-1.859-1.572-1.859c-1.17,0-1.664,1.065-1.756,1.859H622.03z"/>
</g>
<g enable-background="new    ">
	<path d="M467.572,278.115c-0.403,0.208-1.248,0.416-2.313,0.416c-2.471,0-4.316-1.56-4.316-4.445c0-2.756,1.859-4.603,4.576-4.603
		c1.078,0,1.781,0.234,2.08,0.391l-0.287,0.923c-0.416-0.208-1.026-0.364-1.754-0.364c-2.055,0-3.42,1.313-3.42,3.614
		c0,2.158,1.235,3.522,3.354,3.522c0.702,0,1.403-0.143,1.858-0.363L467.572,278.115z"/>
</g>
<g enable-background="new    ">
	<path d="M471.354,278.531c-1.689,0-3.016-1.248-3.016-3.236c0-2.106,1.391-3.341,3.12-3.341c1.808,0,3.029,1.313,3.029,3.224
		c0,2.34-1.625,3.354-3.12,3.354H471.354z M471.393,277.674c1.093,0,1.912-1.027,1.912-2.457c0-1.066-0.533-2.405-1.885-2.405
		c-1.34,0-1.925,1.248-1.925,2.444c0,1.378,0.78,2.418,1.886,2.418H471.393z"/>
</g>
<g enable-background="new    ">
	<path d="M480.364,276.881c0,0.546,0.025,1.079,0.091,1.508h-1.027l-0.104-0.793h-0.038c-0.339,0.494-1.027,0.936-1.925,0.936
		c-1.273,0-1.924-0.896-1.924-1.807c0-1.521,1.353-2.353,3.783-2.34v-0.13c0-0.521-0.143-1.469-1.43-1.456
		c-0.598,0-1.209,0.169-1.65,0.468l-0.261-0.767c0.521-0.325,1.287-0.546,2.08-0.546c1.937,0,2.405,1.313,2.405,2.573V276.881z
		 M479.246,275.178c-1.248-0.026-2.665,0.195-2.665,1.417c0,0.754,0.494,1.092,1.066,1.092c0.832,0,1.364-0.52,1.547-1.053
		c0.039-0.117,0.052-0.247,0.052-0.364V275.178z"/>
</g>
<g enable-background="new    ">
	<path d="M483.524,270.589v1.508h1.638v0.871h-1.638v3.393c0,0.78,0.221,1.223,0.857,1.223c0.313,0,0.494-0.026,0.664-0.078
		l0.051,0.871c-0.221,0.078-0.571,0.155-1.014,0.155c-0.533,0-0.962-0.182-1.234-0.48c-0.313-0.352-0.442-0.91-0.442-1.651v-3.432
		h-0.976v-0.871h0.976v-1.157L483.524,270.589z"/>
	<path d="M489.205,274.151c0-0.806-0.013-1.456-0.052-2.054h1.026l0.065,1.079h0.025c0.455-0.78,1.209-1.222,2.223-1.222
		c1.535,0,2.679,1.286,2.679,3.197c0,2.263-1.392,3.38-2.86,3.38c-0.845,0-1.56-0.363-1.937-0.987h-0.026v3.419h-1.144V274.151z
		 M490.348,275.828c0,0.155,0.014,0.324,0.053,0.468c0.194,0.793,0.896,1.339,1.703,1.339c1.209,0,1.91-0.988,1.91-2.431
		c0-1.262-0.65-2.341-1.859-2.341c-0.779,0-1.521,0.546-1.741,1.404c-0.026,0.156-0.065,0.325-0.065,0.468V275.828z"/>
</g>
<g enable-background="new    ">
	<path d="M496.614,274.06c0-0.741-0.013-1.378-0.052-1.963h1.001l0.052,1.235h0.039c0.286-0.846,0.988-1.378,1.755-1.378
		c0.117,0,0.208,0.013,0.313,0.038v1.066c-0.131-0.013-0.248-0.026-0.403-0.026c-0.806,0-1.378,0.611-1.534,1.456
		c-0.025,0.169-0.039,0.352-0.039,0.547v3.354h-1.144L496.614,274.06z"/>
</g>
<g enable-background="new    ">
	<path d="M503.335,278.531c-1.689,0-3.016-1.248-3.016-3.236c0-2.106,1.391-3.341,3.119-3.341c1.808,0,3.029,1.313,3.029,3.224
		c0,2.34-1.625,3.354-3.119,3.354H503.335z M503.374,277.674c1.092,0,1.911-1.027,1.911-2.457c0-1.066-0.533-2.405-1.885-2.405
		c-1.339,0-1.925,1.248-1.925,2.444c0,1.378,0.781,2.418,1.886,2.418H503.374z"/>
</g>
<g enable-background="new    ">
	<path d="M509.288,270.589v1.508h1.638v0.871h-1.638v3.393c0,0.78,0.221,1.223,0.857,1.223c0.313,0,0.494-0.026,0.664-0.078
		l0.051,0.871c-0.221,0.078-0.571,0.155-1.014,0.155c-0.533,0-0.962-0.182-1.234-0.48c-0.313-0.352-0.442-0.91-0.442-1.651v-3.432
		h-0.976v-0.871h0.976v-1.157L509.288,270.589z"/>
</g>
<g enable-background="new    ">
	<path d="M512.786,275.438c0.025,1.547,1.001,2.185,2.145,2.185c0.819,0,1.326-0.144,1.742-0.313l0.208,0.806
		c-0.403,0.183-1.104,0.403-2.106,0.403c-1.924,0-3.094-1.287-3.094-3.172c0-1.911,1.131-3.406,2.965-3.406
		c2.054,0,2.586,1.808,2.586,2.964c0,0.234-0.012,0.416-0.039,0.546L512.786,275.438z M516.127,274.619
		c0.013-0.716-0.299-1.859-1.573-1.859c-1.17,0-1.664,1.065-1.755,1.859H516.127z"/>
	<path d="M519.194,270.94c-0.429,0-0.715-0.338-0.715-0.741c0-0.402,0.299-0.728,0.741-0.728s0.728,0.325,0.728,0.728
		c0,0.403-0.285,0.741-0.74,0.741H519.194z M518.649,278.389v-6.292h1.143v6.292H518.649z"/>
	<path d="M521.69,273.8c0-0.663-0.013-1.184-0.052-1.703h1.015l0.064,1.027h0.025c0.313-0.585,1.041-1.17,2.08-1.17
		c0.871,0,2.224,0.52,2.224,2.678v3.757h-1.144v-3.627c0-1.014-0.377-1.872-1.457-1.872c-0.74,0-1.326,0.533-1.533,1.17
		c-0.053,0.144-0.078,0.352-0.078,0.533v3.796h-1.145V273.8z"/>
</g>
<line fill="none" stroke="#000000" x1="530.39" y1="274.896" x2="553.294" y2="261.917"/>
<g enable-background="new    ">
	<path d="M615.226,197.354c0.572-0.117,1.404-0.195,2.171-0.195c1.209,0,2.002,0.234,2.549,0.729
		c0.429,0.377,0.688,0.975,0.688,1.664c0,1.144-0.741,1.91-1.651,2.223v0.039c0.664,0.233,1.066,0.857,1.287,1.768
		c0.286,1.223,0.494,2.067,0.663,2.405h-1.17c-0.144-0.247-0.338-1.001-0.571-2.093c-0.261-1.209-0.742-1.664-1.769-1.703h-1.065
		v3.796h-1.132V197.354z M616.358,201.331h1.156c1.209,0,1.977-0.663,1.977-1.664c0-1.131-0.819-1.625-2.016-1.625
		c-0.546,0-0.923,0.053-1.117,0.104V201.331z"/>
</g>
<g enable-background="new    ">
	<path d="M622.87,203.034c0.025,1.547,1,2.185,2.145,2.185c0.818,0,1.326-0.144,1.742-0.313l0.207,0.806
		c-0.402,0.183-1.104,0.403-2.105,0.403c-1.924,0-3.094-1.287-3.094-3.172c0-1.911,1.131-3.406,2.964-3.406
		c2.054,0,2.587,1.808,2.587,2.964c0,0.234-0.013,0.416-0.039,0.546L622.87,203.034z M626.21,202.216
		c0.014-0.716-0.299-1.859-1.572-1.859c-1.17,0-1.664,1.065-1.756,1.859H626.21z"/>
</g>
<g enable-background="new    ">
	<path d="M633.219,205.765c-0.3,0.143-0.962,0.363-1.808,0.363c-1.897,0-3.133-1.286-3.133-3.224c0-1.937,1.326-3.354,3.381-3.354
		c0.676,0,1.273,0.169,1.586,0.338l-0.26,0.871c-0.273-0.144-0.703-0.3-1.326-0.3c-1.443,0-2.224,1.079-2.224,2.393
		c0,1.456,0.937,2.353,2.185,2.353c0.649,0,1.078-0.155,1.403-0.299L633.219,205.765z"/>
</g>
<g enable-background="new    ">
	<path d="M635.13,203.034c0.025,1.547,1.001,2.185,2.145,2.185c0.819,0,1.326-0.144,1.742-0.313l0.208,0.806
		c-0.403,0.183-1.104,0.403-2.106,0.403c-1.924,0-3.094-1.287-3.094-3.172c0-1.911,1.131-3.406,2.965-3.406
		c2.054,0,2.586,1.808,2.586,2.964c0,0.234-0.012,0.416-0.039,0.546L635.13,203.034z M638.47,202.216
		c0.013-0.716-0.299-1.859-1.573-1.859c-1.17,0-1.664,1.065-1.755,1.859H638.47z"/>
	<path d="M640.993,201.747c0-0.806-0.014-1.456-0.053-2.054h1.027l0.064,1.079h0.026c0.455-0.78,1.209-1.222,2.223-1.222
		c1.534,0,2.679,1.286,2.679,3.197c0,2.263-1.392,3.38-2.86,3.38c-0.845,0-1.56-0.363-1.937-0.987h-0.027v3.419h-1.143V201.747z
		 M642.135,203.425c0,0.155,0.014,0.324,0.053,0.468c0.195,0.793,0.896,1.339,1.703,1.339c1.209,0,1.91-0.988,1.91-2.431
		c0-1.262-0.649-2.341-1.858-2.341c-0.78,0-1.521,0.546-1.741,1.404c-0.027,0.156-0.066,0.325-0.066,0.468V203.425z"/>
</g>
<g enable-background="new    ">
	<path d="M649.768,198.186v1.508h1.637v0.871h-1.637v3.393c0,0.78,0.221,1.223,0.857,1.223c0.313,0,0.494-0.026,0.663-0.078
		l0.052,0.871c-0.221,0.078-0.572,0.155-1.014,0.155c-0.533,0-0.963-0.182-1.235-0.48c-0.312-0.352-0.442-0.91-0.442-1.651v-3.432
		h-0.975v-0.871h0.975v-1.157L649.768,198.186z"/>
</g>
<g enable-background="new    ">
	<path d="M655.176,206.128c-1.69,0-3.016-1.248-3.016-3.236c0-2.106,1.391-3.341,3.12-3.341c1.807,0,3.029,1.313,3.029,3.224
		c0,2.34-1.625,3.354-3.121,3.354H655.176z M655.215,205.271c1.093,0,1.911-1.027,1.911-2.457c0-1.066-0.533-2.405-1.885-2.405
		c-1.34,0-1.924,1.248-1.924,2.444c0,1.378,0.779,2.418,1.885,2.418H655.215z"/>
	<path d="M659.764,201.656c0-0.741-0.013-1.378-0.052-1.963h1.001l0.052,1.235h0.039c0.286-0.846,0.988-1.378,1.755-1.378
		c0.117,0,0.208,0.013,0.313,0.038v1.066c-0.131-0.013-0.248-0.026-0.403-0.026c-0.806,0-1.378,0.611-1.534,1.456
		c-0.025,0.169-0.039,0.352-0.039,0.547v3.354h-1.144L659.764,201.656z"/>
</g>
<line fill="none" stroke="#000000" x1="611.89" y1="202.396" x2="575.434" y2="163.572"/>
<g enable-background="new    ">
	<path d="M522.488,209.622c-0.403,0.208-1.248,0.416-2.313,0.416c-2.471,0-4.316-1.56-4.316-4.445c0-2.756,1.859-4.603,4.576-4.603
		c1.078,0,1.781,0.234,2.08,0.391l-0.287,0.923c-0.416-0.208-1.026-0.364-1.754-0.364c-2.055,0-3.42,1.313-3.42,3.614
		c0,2.158,1.235,3.522,3.354,3.522c0.702,0,1.403-0.143,1.858-0.363L522.488,209.622z"/>
</g>
<g enable-background="new    ">
	<path d="M526.27,210.038c-1.689,0-3.016-1.248-3.016-3.236c0-2.106,1.391-3.341,3.12-3.341c1.808,0,3.029,1.313,3.029,3.224
		c0,2.34-1.625,3.354-3.12,3.354H526.27z M526.309,209.181c1.093,0,1.912-1.027,1.912-2.457c0-1.066-0.533-2.405-1.885-2.405
		c-1.34,0-1.925,1.248-1.925,2.444c0,1.378,0.78,2.418,1.886,2.418H526.309z"/>
</g>
<g enable-background="new    ">
	<path d="M535.28,208.388c0,0.546,0.025,1.079,0.091,1.508h-1.027l-0.104-0.793h-0.038c-0.339,0.494-1.027,0.936-1.925,0.936
		c-1.273,0-1.924-0.896-1.924-1.807c0-1.521,1.353-2.353,3.783-2.34v-0.13c0-0.521-0.143-1.469-1.43-1.456
		c-0.598,0-1.209,0.169-1.65,0.468l-0.261-0.767c0.521-0.325,1.287-0.546,2.08-0.546c1.937,0,2.405,1.313,2.405,2.573V208.388z
		 M534.162,206.685c-1.248-0.026-2.665,0.195-2.665,1.417c0,0.754,0.494,1.092,1.066,1.092c0.832,0,1.364-0.52,1.547-1.053
		c0.039-0.117,0.052-0.247,0.052-0.364V206.685z"/>
</g>
<g enable-background="new    ">
	<path d="M538.439,202.096v1.508h1.638v0.871h-1.638v3.393c0,0.78,0.221,1.223,0.858,1.223c0.312,0,0.494-0.026,0.662-0.078
		l0.053,0.871c-0.221,0.078-0.572,0.155-1.014,0.155c-0.533,0-0.963-0.182-1.236-0.48c-0.312-0.352-0.441-0.91-0.441-1.651v-3.432
		h-0.975v-0.871h0.975v-1.157L538.439,202.096z"/>
</g>
<g enable-background="new    ">
	<path d="M541.936,206.945c0.025,1.547,1,2.185,2.145,2.185c0.818,0,1.326-0.144,1.742-0.313l0.207,0.806
		c-0.402,0.183-1.104,0.403-2.105,0.403c-1.924,0-3.094-1.287-3.094-3.172c0-1.911,1.131-3.406,2.964-3.406
		c2.054,0,2.587,1.808,2.587,2.964c0,0.234-0.013,0.416-0.039,0.546L541.936,206.945z M545.276,206.126
		c0.014-0.716-0.299-1.859-1.572-1.859c-1.17,0-1.664,1.065-1.756,1.859H545.276z"/>
	<path d="M553.232,200.665v7.605c0,0.559,0.013,1.196,0.052,1.625h-1.026l-0.052-1.092h-0.026c-0.351,0.702-1.104,1.234-2.132,1.234
		c-1.521,0-2.704-1.286-2.704-3.197c-0.013-2.106,1.3-3.38,2.821-3.38c0.975,0,1.625,0.454,1.897,0.948h0.026v-3.744H553.232z
		 M552.089,206.164c0-0.155-0.014-0.338-0.053-0.493c-0.168-0.716-0.793-1.313-1.65-1.313c-1.184,0-1.885,1.04-1.885,2.418
		c0,1.287,0.637,2.34,1.858,2.34c0.767,0,1.47-0.52,1.677-1.364c0.039-0.156,0.053-0.313,0.053-0.494V206.164z"/>
	<path d="M557.886,205.657c0-0.806-0.013-1.456-0.052-2.054h1.026l0.065,1.079h0.025c0.455-0.78,1.209-1.222,2.223-1.222
		c1.535,0,2.679,1.286,2.679,3.197c0,2.263-1.392,3.38-2.86,3.38c-0.845,0-1.56-0.363-1.937-0.987h-0.026v3.419h-1.144V205.657z
		 M559.03,207.335c0,0.155,0.014,0.324,0.053,0.468c0.194,0.793,0.896,1.339,1.703,1.339c1.209,0,1.91-0.988,1.91-2.431
		c0-1.262-0.65-2.341-1.859-2.341c-0.779,0-1.521,0.546-1.741,1.404c-0.026,0.156-0.065,0.325-0.065,0.468V207.335z"/>
	<path d="M565.829,202.447c-0.429,0-0.715-0.338-0.715-0.741c0-0.402,0.299-0.728,0.741-0.728s0.728,0.325,0.728,0.728
		c0,0.403-0.285,0.741-0.74,0.741H565.829z M565.284,209.896v-6.292h1.143v6.292H565.284z"/>
	<path d="M569.704,202.096v1.508h1.637v0.871h-1.637v3.393c0,0.78,0.221,1.223,0.857,1.223c0.313,0,0.494-0.026,0.663-0.078
		l0.052,0.871c-0.221,0.078-0.572,0.155-1.014,0.155c-0.533,0-0.963-0.182-1.235-0.48c-0.312-0.352-0.442-0.91-0.442-1.651v-3.432
		h-0.975v-0.871h0.975v-1.157L569.704,202.096z"/>
</g>
<polyline fill="none" stroke="#000000" points="125.033,148.443 114.89,204.396 179.427,147.859 "/>
<rect x="656.137" y="163.359" fill="#FFBF00" width="11.252" height="7.285"/>
</svg>
